<svg xmlns="http://www.w3.org/2000/svg" xmlns:xlink="http://www.w3.org/1999/xlink" width="1926.515" height="1080.227" viewBox="0 0 1926.515 1080.227"><defs><linearGradient id="a" x1="0.47" y1="0.33" x2="0" y2="0.937" gradientUnits="objectBoundingBox"><stop offset="0" stop-color="#000133"/><stop offset="1" stop-color="#ab007d"/></linearGradient></defs><g transform="translate(0.347 0.227)"><path d="M0,957.809s450.424,179,696.353,0S989.062,809.633,1326.68,847.566,1791,841.639,1924.661,691.092c1.938-2.183,0-691.092,0-691.092H0Z" transform="translate(0 39.972)" fill="#4900c7" opacity="0.3"/><path d="M0,997.454s450.424,179.732,696.353,0,292.709-208.3,630.327-170.21S1791,857,1924.661,705.836c1.938-2.192,0-705.836,0-705.836H0Z" transform="translate(0 0)" fill="#000133" opacity="0.9"/><path d="M0,1000.1s450.424,179.78,696.353,0,292.709-258.359,630.327-220.26S1791,833.415,1924.661,682.21c1.938-2.193,0-682.21,0-682.21H0Z" transform="translate(0 0)" fill="url(#a)"/><path d="M1618.572,239.583c-1.651,0-3.309-.009-4.952-.029l.011-1c2.32.027,4.672.035,6.99.024l0,1Q1619.6,239.583,1618.572,239.583Zm9.07-.1-.021-1c2.315-.049,4.662-.118,6.976-.2l.038,1C1632.315,239.369,1629.963,239.438,1627.643,239.487Zm-21.024-.07c-2.323-.065-4.682-.149-7.01-.251l.044-1c2.323.1,4.676.186,6.994.251Zm35.033-.456-.054-1c2.309-.125,4.652-.27,6.961-.433l.07,1C1646.314,238.69,1643.967,238.836,1641.652,238.961Zm-49.03-.158c-2.319-.139-4.674-.3-7-.475l.075-1c2.321.176,4.671.335,6.984.474Zm63-.825-.087-1c2.307-.2,4.648-.422,6.956-.66l.1.995C1660.281,237.555,1657.935,237.778,1655.623,237.978Zm-76.982-.233c-2.308-.211-4.653-.444-6.97-.691l.106-.994c2.312.247,4.653.479,6.955.69Zm90.916-1.2-.118-.993c2.3-.275,4.639-.572,6.944-.885l.134.991C1674.207,235.969,1671.865,236.267,1669.557,236.543Zm-104.853-.287c-2.3-.28-4.634-.583-6.943-.9l.136-.991c2.3.316,4.636.618,6.929.9Zm118.736-1.593-.15-.989c2.3-.348,4.625-.719,6.925-1.1l.165.986C1688.076,233.942,1685.741,234.314,1683.44,234.663Zm-132.618-.31c-2.288-.347-4.616-.718-6.919-1.1l.164-.986c2.3.382,4.622.752,6.905,1.1Zm146.437-2-.18-.984c2.286-.419,4.607-.863,6.9-1.319l.2.981C1701.877,231.484,1699.551,231.929,1697.26,232.349ZM1537,232.056c-2.277-.41-4.595-.845-6.89-1.29l.19-.982c2.291.445,4.6.878,6.876,1.288Zm174-2.441-.21-.978c2.272-.487,4.579-1,6.856-1.524l.224.975C1715.59,228.612,1713.279,229.126,1711,229.615Zm-187.756-.228c-2.263-.47-4.568-.963-6.852-1.466l.215-.976c2.28.5,4.581.995,6.84,1.463Zm201.412-2.912-.238-.971c2.256-.553,4.547-1.132,6.809-1.721l.252.968C1729.214,225.341,1726.919,225.921,1724.658,226.475Zm-215.1-.1c-2.247-.524-4.539-1.072-6.812-1.629l.238-.971c2.269.556,4.557,1.1,6.8,1.626Zm-13.608-3.334c-2.233-.573-4.512-1.172-6.775-1.778l.259-.966c2.259.605,4.536,1.2,6.765,1.775Zm242.264-.09-.265-.964c2.24-.616,4.515-1.259,6.762-1.91l.278.96C1742.742,221.686,1740.463,222.33,1738.218,222.947Zm-255.8-3.535c-2.218-.618-4.485-1.262-6.738-1.912l.278-.961c2.25.65,4.514,1.293,6.729,1.91Zm269.253-.364-.291-.957c2.224-.677,4.484-1.381,6.715-2.092l.3.953C1756.168,217.665,1753.9,218.37,1751.676,219.048Zm-282.712-3.523c-2.2-.658-4.458-1.341-6.7-2.032l.294-.956c2.241.69,4.494,1.373,6.694,2.03Zm296.061-.729-.316-.949c2.206-.734,4.446-1.495,6.659-2.262l.328.945C1769.479,213.3,1767.234,214.061,1765.025,214.8Zm-309.448-3.39c-2.189-.693-4.433-1.412-6.671-2.138l.309-.951c2.235.725,4.478,1.444,6.664,2.136Zm322.686-1.2-.339-.941c2.183-.787,4.4-1.6,6.592-2.42l.35.937C1782.672,208.6,1780.45,209.42,1778.263,210.208Zm-336.009-3.124c-2.174-.722-4.408-1.471-6.64-2.228l.321-.947c2.23.756,4.462,1.505,6.634,2.226Zm349.135-1.782-.361-.933c2.159-.836,4.353-1.7,6.52-2.567l.371.928C1795.749,203.6,1793.552,204.465,1791.389,205.3Zm-362.4-2.713c-2.158-.745-4.382-1.52-6.611-2.3l.331-.943c2.227.782,4.45,1.556,6.606,2.3Zm375.415-2.5-.382-.924c2.134-.882,4.3-1.791,6.443-2.7l.392.92C1808.711,198.3,1806.54,199.21,1804.4,200.093Zm-388.63-2.145c-2.141-.763-4.357-1.558-6.588-2.364l.339-.941c2.229.805,4.444,1.6,6.584,2.363Zm401.536-3.351-.4-.916c2.107-.924,4.247-1.875,6.361-2.828l.411.912C1821.562,192.72,1819.419,193.672,1817.309,194.6Zm-414.705-1.4c-2.122-.775-4.334-1.586-6.575-2.413l.346-.938c2.24.826,4.451,1.637,6.572,2.412Zm427.493-4.36-.42-.907c2.083-.964,4.2-1.956,6.289-2.948l.429.9C1834.3,186.876,1832.182,187.869,1830.1,188.834Zm-440.631-.482c-2.089-.776-4.3-1.6-6.563-2.447l.35-.937c2.265.847,4.472,1.67,6.561,2.446Zm-13.116-4.9c-2.034-.765-4.177-1.571-6.551-2.466l.353-.936c2.374.9,4.516,1.7,6.55,2.466Zm466.374-.608-.437-.9c2.077-1.01,4.188-2.049,6.273-3.088l.446.9C1846.918,180.788,1844.8,181.828,1842.725,182.84Zm-1301.314-2.7c-2.328,0-4.688-.009-7.014-.026l.007-1c2.324.017,4.681.026,7.007.026Zm7-.025-.007-1c2.317-.017,4.668-.043,6.987-.077l.015,1C553.086,180.076,550.733,180.1,548.413,180.118Zm-20.992-.078c-2.334-.035-4.7-.078-7.031-.13l.022-1c2.329.052,4.692.1,7.023.13Zm35.017-.128-.022-1c2.31-.051,4.654-.111,6.965-.178l.029,1C567.1,179.8,564.751,179.862,562.439,179.913ZM513.4,179.73c-2.324-.069-4.68-.147-7-.233l.037-1c2.319.086,4.672.164,6.994.233Zm63.019-.225-.036-1c2.32-.085,4.673-.179,6.995-.281l.044,1C581.1,179.325,578.741,179.419,576.419,179.5Zm-77.025-.293c-2.315-.1-4.661-.216-6.974-.336l.052-1c2.31.12,4.654.233,6.966.336Zm91.01-.318-.051-1c2.325-.119,4.683-.247,7.01-.383l.058,1C595.091,178.645,592.73,178.774,590.4,178.893Zm772.844-.383-4.489-1.7-2.056-.777.353-.935,2.056.777,4.488,1.7ZM485.4,178.483c-2.315-.138-4.661-.286-6.973-.441l.067-1c2.31.155,4.654.3,6.966.441Zm118.987-.4-.065-1c2.315-.151,4.664-.313,6.98-.481l.072,1C609.059,177.765,606.708,177.927,604.39,178.079Zm-132.959-.532c-2.317-.173-4.666-.357-6.981-.547l.082-1c2.312.19,4.659.374,6.974.546Zm146.948-.483-.08-1c2.3-.184,4.643-.378,6.949-.579l.087,1C623.027,176.685,620.686,176.88,618.379,177.064Zm1236.868-.459-.454-.891c2.075-1.057,4.184-2.143,6.267-3.227l.462.887C1859.436,174.46,1857.325,175.547,1855.247,176.605ZM457.48,176.4c-2.319-.208-4.67-.428-6.986-.653l.1-1c2.314.225,4.662.445,6.979.653Zm174.844-.548-.094-1c2.309-.217,4.651-.445,6.962-.679l.1.995C636.98,175.407,634.635,175.636,632.324,175.853Zm-188.772-.807c-2.32-.244-4.672-.5-6.989-.76l.112-.994c2.315.261,4.664.516,6.982.76Zm202.694-.6-.108-.994c2.315-.25,4.662-.513,6.978-.78l.115.994C650.913,173.932,648.563,174.195,646.246,174.446Zm703.9-.882q-3.27-1.234-6.548-2.468l.352-.936q3.279,1.234,6.549,2.468Zm-920.529-.086c-2.312-.278-4.655-.569-6.963-.864l.127-.992c2.306.3,4.646.586,6.955.863Zm230.544-.635-.121-.993c2.3-.281,4.637-.575,6.94-.873l.128.992C664.807,172.266,662.47,172.56,660.165,172.842ZM415.719,171.7c-2.3-.312-4.636-.638-6.935-.968l.142-.99c2.3.33,4.628.655,6.927.967Zm258.363-.656-.135-.991c2.289-.312,4.61-.637,6.9-.965l.142.99C678.7,170.4,676.373,170.73,674.082,171.042Zm1193.589-.9-.469-.883c2.047-1.088,4.127-2.2,6.183-3.319l.477.879C1871.8,167.933,1869.72,169.051,1867.671,170.14Zm-1465.822-.432c-2.293-.347-4.617-.707-6.907-1.071l.157-.988c2.287.364,4.609.724,6.9,1.07Zm286.075-.65-.149-.989c2.3-.345,4.63-.7,6.929-1.066l.155.988C692.558,168.353,690.225,168.712,687.924,169.058Zm649.127-.423c-2.3-.862-4.445-1.664-6.559-2.452l.349-.937c2.115.788,4.261,1.591,6.561,2.453Zm-949.039-1.128c-2.284-.381-4.6-.776-6.879-1.175l.172-.985c2.278.4,4.59.793,6.871,1.174Zm313.74-.624-.162-.987c2.293-.376,4.619-.766,6.913-1.159l.169.986C706.376,166.116,704.047,166.506,701.752,166.883ZM374.214,165.1c-2.279-.416-4.589-.847-6.864-1.28l.187-.982c2.273.433,4.58.863,6.857,1.279Zm341.36-.578-.175-.985c2.278-.406,4.589-.825,6.867-1.246l.182.983C720.167,163.692,717.854,164.112,715.574,164.518Zm608.362-.771c-2.238-.829-4.449-1.644-6.57-2.423l.345-.939c2.122.779,4.333,1.595,6.572,2.424ZM1880,163.453l-.484-.875c2.016-1.115,4.064-2.257,6.088-3.4l.491.871C1884.073,161.194,1882.022,162.338,1880,163.453Zm-1519.549-.979c-2.275-.451-4.58-.918-6.85-1.387l.2-.979c2.268.468,4.57.934,6.843,1.385Zm368.894-.5-.188-.982c2.276-.437,4.584-.887,6.861-1.34l.195.981C733.937,161.082,731.626,161.533,729.348,161.97Zm-382.611-2.327c-2.269-.487-4.569-.989-6.834-1.493l.217-.976c2.263.5,4.56,1,6.826,1.491Zm396.33-.4-.2-.98c2.279-.468,4.591-.951,6.871-1.435l.208.978C747.663,158.292,745.349,158.776,743.068,159.245Zm567.727-.322c-2.225-.809-4.439-1.61-6.581-2.38l.338-.941c2.142.771,4.358,1.572,6.584,2.382ZM333.066,156.6c-2.263-.522-4.556-1.059-6.815-1.6l.232-.973c2.256.538,4.546,1.075,6.807,1.6Zm1559.169-.038-.5-.867c1.991-1.142,4.014-2.313,6.013-3.479l.5.864C1896.253,154.25,1894.228,155.421,1892.235,156.565Zm-1135.456-.231-.214-.977c2.262-.5,4.556-1.006,6.819-1.518l.221.975C761.34,155.326,759.043,155.837,756.779,156.333Zm540.843-2.148c-2.22-.789-4.439-1.572-6.595-2.327l.331-.944c2.157.756,4.377,1.539,6.6,2.328Zm-978.181-.834c-2.256-.556-4.541-1.13-6.792-1.7l.247-.969c2.249.573,4.531,1.146,6.784,1.7Zm451.013-.109-.227-.974c2.254-.525,4.54-1.064,6.795-1.6l.233.973C775,152.178,772.711,152.718,770.455,153.243Zm13.6-3.256-.239-.971c2.26-.556,4.552-1.129,6.813-1.7l.245.969C788.608,148.858,786.313,149.43,784.051,149.987Zm-478.182-.1c-2.247-.591-4.524-1.2-6.766-1.808l.262-.965c2.24.608,4.514,1.215,6.759,1.806Zm978.544-.334c-2.22-.766-4.446-1.528-6.615-2.264l.321-.947c2.171.737,4.4,1.5,6.62,2.265Zm619.879-.03-.51-.86c2-1.187,4.032-2.4,6.04-3.615l.517.856C1908.328,147.123,1906.294,148.34,1904.292,149.528ZM797.64,146.551l-.251-.968c2.241-.582,4.515-1.18,6.756-1.777l.257.966C802.158,145.37,799.883,145.968,797.64,146.551Zm-505.29-.326c-2.238-.626-4.5-1.269-6.737-1.912l.277-.961c2.23.642,4.494,1.285,6.73,1.91Zm978.814-1.161c-2.225-.741-4.461-1.479-6.646-2.193l.311-.95c2.186.714,4.424,1.452,6.651,2.194Zm-459.977-2.121-.263-.965c2.233-.61,4.5-1.235,6.732-1.86l.27.963C815.689,141.706,813.422,142.332,811.187,142.943Zm-532.3-.594c-2.227-.66-4.483-1.338-6.7-2.014l.291-.957c2.219.676,4.473,1.353,6.7,2.012Zm1637.388-.05-.523-.853c1.977-1.212,3.986-2.452,5.971-3.688l.528.849C1920.266,139.844,1918.255,141.086,1916.276,142.3Zm-658.412-1.578c-2.233-.714-4.479-1.424-6.678-2.111l.3-.955c2.2.688,4.45,1.4,6.685,2.113Zm-433.213-1.543-.275-.961c2.236-.64,4.5-1.3,6.742-1.952l.281.96C829.16,137.879,826.89,138.537,824.651,139.177Zm-559.165-.911c-2.215-.694-4.459-1.405-6.668-2.116l.306-.952c2.207.71,4.448,1.421,6.661,2.114Zm979.022-1.719c-2.239-.683-4.495-1.362-6.705-2.018l.285-.959c2.213.657,4.471,1.337,6.712,2.02ZM838.17,135.234l-.279-.96c2.243-.652,4.513-1.3,6.748-1.935l.272.962C842.679,133.933,840.411,134.583,838.17,135.234Zm-586.022-1.257c-2.2-.727-4.432-1.473-6.628-2.216l.321-.947c2.193.743,4.421,1.488,6.621,2.214Zm978.946-1.413c-2.245-.648-4.509-1.292-6.73-1.915l.27-.963c2.224.623,4.491,1.268,6.738,1.917Zm-379.488-1.126-.264-.965c2.261-.62,4.549-1.237,6.8-1.835l.257.967C856.151,130.2,853.864,130.82,851.606,131.439Zm-612.727-1.956c-2.187-.76-4.4-1.539-6.583-2.315l.335-.942c2.178.775,4.391,1.554,6.576,2.312Zm978.74-.694c-2.251-.611-4.524-1.218-6.755-1.8l.254-.967c2.234.586,4.51,1.194,6.763,1.805Zm-352.455-.949-.249-.969c2.25-.578,4.528-1.152,6.77-1.709l.241.971C869.686,126.689,867.411,127.264,865.164,127.841Zm338.918-2.6c-2.257-.571-4.538-1.138-6.78-1.684l.237-.972c2.244.547,4.528,1.114,6.788,1.686Zm-978.4-.454c-2.177-.794-4.381-1.608-6.55-2.418l.35-.937c2.167.81,4.369,1.622,6.543,2.415Zm653.071-.313-.232-.973c2.255-.539,4.539-1.075,6.787-1.592l.224.975C883.287,123.4,881.006,123.933,878.753,124.471Zm311.734-2.543c-2.265-.53-4.556-1.054-6.808-1.558l.218-.976c2.255.505,4.549,1.03,6.817,1.56Zm-298.108-.591-.216-.976c2.275-.5,4.579-1,6.846-1.481l.207.978C896.951,120.338,894.651,120.836,892.379,121.338Zm-679.817-1.455c-2.169-.829-4.364-1.679-6.525-2.525l.365-.931c2.159.845,4.351,1.693,6.517,2.522Zm964.278-1.009c-2.275-.486-4.577-.966-6.842-1.427l.2-.98c2.268.461,4.574.942,6.852,1.429Zm-270.8-.429-.2-.98c2.293-.464,4.615-.923,6.9-1.364l.19.982C910.652,117.524,908.333,117.982,906.043,118.446Zm257.091-2.359c-2.285-.441-4.6-.875-6.875-1.29l.179-.984c2.281.416,4.6.851,6.885,1.293Zm-243.357-.29-.18-.984c2.3-.422,4.63-.838,6.923-1.236l.171.985C924.4,114.96,922.074,115.375,919.777,115.8Zm-720.253-1.015c-2.16-.865-4.347-1.75-6.5-2.631l.379-.925c2.15.88,4.334,1.765,6.492,2.629Zm949.851-1.2c-2.294-.394-4.618-.78-6.906-1.149l.159-.987c2.292.369,4.619.756,6.917,1.15ZM933.58,113.4l-.162-.987c2.3-.376,4.622-.746,6.911-1.1l.152.988C938.2,112.653,935.873,113.022,933.58,113.4Zm201.986-2.043c-2.3-.345-4.636-.682-6.934-1l.138-.99c2.3.32,4.639.658,6.945,1Zm-188.151-.089-.143-.99c2.294-.331,4.617-.654,6.9-.96l.133.991C952.025,110.614,949.706,110.936,947.415,111.267Zm-760.84-1.788c-2.152-.9-4.33-1.823-6.474-2.74l.393-.92c2.141.916,4.317,1.837,6.466,2.737Zm935.137-.048c-2.31-.3-4.652-.582-6.959-.852l.116-.993c2.311.27,4.657.557,6.97.853Zm-160.43-.022-.123-.992c2.3-.285,4.633-.562,6.928-.823l.113.994C965.907,108.847,963.58,109.123,961.281,109.408Zm13.9-1.579-.1-.995c2.312-.239,4.654-.469,6.96-.683l.092,1C979.824,107.361,977.485,107.591,975.177,107.829Zm132.642-.022c-2.317-.245-4.666-.48-6.981-.7l.094-1c2.319.219,4.672.454,6.992.7ZM989.1,106.537l-.082-1c2.321-.191,4.671-.372,6.986-.538l.072,1C993.763,106.165,991.416,106.346,989.1,106.537Zm104.795-.044c-2.321-.193-4.674-.376-6.995-.543l.072-1c2.325.167,4.682.35,7.006.543Zm-90.849-.956-.061-1c2.327-.142,4.685-.273,7.007-.39l.05,1C1007.721,105.265,1005.368,105.4,1003.044,105.537Zm76.9-.048c-2.324-.141-4.681-.271-7.006-.386l.049-1c2.329.115,4.69.245,7.018.386Zm-62.935-.653-.039-1c2.332-.092,4.694-.172,7.021-.238l.028,1C1021.695,104.664,1019.336,104.744,1017.008,104.836Zm48.965-.038c-2.327-.089-4.687-.166-7.016-.229l.027-1c2.332.063,4.7.14,7.027.229Zm-34.988-.36-.017-1c2.334-.041,4.7-.069,7.03-.084l.006,1C1035.677,104.369,1033.315,104.4,1030.985,104.438Zm21.006-.018c-2.328-.037-4.691-.061-7.022-.072l0-1c2.335.011,4.7.035,7.033.072Zm-878.3-.456c-2.132-.932-4.29-1.885-6.413-2.834l.408-.913c2.12.947,4.276,1.9,6.406,2.83Zm-12.8-5.718c-2.107-.961-4.238-1.943-6.334-2.919l.422-.906c2.094.975,4.222,1.956,6.327,2.916Zm-12.7-5.914c-2.1-1-4.224-2.019-6.312-3.032l.436-.9c2.086,1.012,4.208,2.031,6.3,3.029Zm-12.58-6.1c-2.093-1.036-4.208-2.095-6.289-3.146l.451-.892c2.078,1.05,4.191,2.107,6.281,3.142ZM123.08,79.9c-2.06-1.062-4.141-2.146-6.187-3.222l.465-.885c2.044,1.075,4.123,2.157,6.18,3.218Zm-12.4-6.52c-2.053-1.1-4.128-2.226-6.166-3.341l.48-.877c2.036,1.114,4.108,2.237,6.159,3.337ZM98.4,66.656c-2.027-1.131-4.073-2.285-6.083-3.429l.495-.869c2.007,1.143,4.051,2.295,6.075,3.425ZM86.223,59.723c-2.017-1.171-4.053-2.366-6.051-3.549l.51-.86c2,1.182,4.029,2.375,6.043,3.545ZM74.161,52.577c-1.993-1.2-4-2.432-5.973-3.647l.525-.851c1.968,1.214,3.975,2.439,5.965,3.642Zm-11.91-7.345c-1.972-1.241-3.958-2.5-5.9-3.754l.54-.841c1.942,1.248,3.926,2.51,5.9,3.749ZM50.477,37.665c-1.955-1.283-3.92-2.586-5.84-3.874l.557-.83c1.918,1.286,3.88,2.587,5.832,3.868ZM38.829,29.854c-1.937-1.327-3.878-2.673-5.77-4l.574-.819c1.889,1.325,3.828,2.669,5.761,3.994ZM27.34,21.8c-1.9-1.367-3.8-2.747-5.64-4.1l.593-.805c1.836,1.353,3.73,2.73,5.63,4.1ZM16.058,13.48c-1.9-1.438-3.765-2.873-5.546-4.265l.616-.788c1.778,1.389,3.64,2.821,5.535,4.256ZM5.015,4.841C1.514,2-.313.391-.331.375l.661-.75c.018.016,1.831,1.611,5.315,4.44Z" transform="translate(0 724.1)" fill="#fff" opacity="0.4"/><path d="M1619.008,266.231v-1c2.32,0,4.671-.024,6.989-.064l.017,1C1623.69,266.207,1621.334,266.229,1619.008,266.231Zm-7.013-.05c-2.317-.035-4.67-.09-6.991-.164l.031-1c2.316.073,4.663.128,6.975.163Zm21.02-.193-.034-1c2.322-.078,4.676-.177,7-.294l.05,1C1637.7,265.81,1635.342,265.909,1633.015,265.988Zm-35.027-.248c-2.317-.11-4.669-.241-6.991-.389l.063-1c2.318.147,4.664.278,6.976.388Zm49.021-.453-.066-1c2.319-.154,4.671-.33,6.99-.522l.083,1C1651.69,264.955,1649.333,265.132,1647.009,265.286Zm-63-.435c-2.313-.184-4.662-.389-6.983-.609l.095-1c2.316.22,4.66.425,6.968.608Zm76.97-.723-.1-1c2.308-.229,4.65-.48,6.961-.747l.115.993C1665.637,263.647,1663.29,263.9,1660.976,264.129Zm-90.915-.6c-2.306-.255-4.65-.531-6.967-.823l.125-.992c2.312.29,4.651.567,6.952.821ZM1674.9,262.52l-.13-.991c2.3-.3,4.625-.628,6.924-.968l.146.989C1679.536,261.891,1677.2,262.217,1674.9,262.52Zm-118.749-.74c-2.293-.322-4.624-.667-6.931-1.025l.153-.988c2.3.357,4.629.7,6.917,1.023Zm132.618-1.309-.162-.987c2.281-.374,4.6-.771,6.882-1.182l.177.984C1693.375,259.7,1691.055,260.1,1688.769,260.471Zm-146.466-.84c-2.28-.386-4.6-.8-6.9-1.218l.181-.984c2.292.421,4.607.829,6.882,1.215Zm160.265-1.639-.192-.982c2.265-.443,4.565-.91,6.835-1.389l.206.979C1707.142,257.08,1704.837,257.548,1702.567,257.992Zm-174.046-.89c-2.267-.447-4.577-.918-6.864-1.4l.206-.979c2.283.481,4.589.951,6.852,1.4Zm187.763-2-.221-.975c2.248-.509,4.531-1.043,6.785-1.588l.235.972C1720.824,254.053,1718.536,254.588,1716.284,255.1Zm-201.472-.881c-2.254-.5-4.551-1.031-6.829-1.568l.229-.973c2.274.536,4.568,1.063,6.818,1.565Zm215.1-2.412-.249-.969c2.231-.573,4.5-1.171,6.733-1.779l.262.965C1734.412,250.632,1732.142,251.232,1729.907,251.806Zm-228.733-.8c-2.239-.555-4.524-1.134-6.791-1.722l.251-.968c2.263.587,4.545,1.166,6.78,1.72Zm242.256-2.87-.276-.961c2.213-.634,4.461-1.294,6.68-1.962l.288.957C1747.9,246.836,1745.647,247.5,1743.43,248.132Zm-255.817-.646c-2.224-.6-4.5-1.228-6.753-1.863l.271-.963c2.254.634,4.523,1.259,6.743,1.86Zm269.232-3.391-.3-.954c2.2-.693,4.427-1.412,6.63-2.138l.313.95C1761.279,242.681,1759.045,243.4,1756.844,244.095Zm-282.718-.4c-2.209-.643-4.468-1.312-6.716-1.988l.288-.958c2.245.675,4.5,1.343,6.708,1.985Zm296.02-3.983-.325-.946c2.18-.749,4.4-1.525,6.583-2.306l.336.942C1774.549,238.185,1772.33,238.963,1770.146,239.713Zm-309.435-.051c-2.194-.68-4.441-1.386-6.68-2.1l.3-.953c2.237.712,4.482,1.417,6.673,2.1Zm-13.347-4.248c-2.179-.711-4.416-1.449-6.65-2.195l.317-.949c2.231.745,4.466,1.482,6.643,2.192ZM1783.333,235l-.348-.938c2.166-.8,4.366-1.633,6.54-2.468l.359.934C1787.706,233.367,1785.5,234.2,1783.333,235Zm-349.254-4.02c-2.165-.737-4.394-1.5-6.625-2.277l.328-.945c2.229.773,4.456,1.539,6.62,2.275Zm362.323-1-.369-.929c2.154-.855,4.341-1.739,6.5-2.625l.38.925C1800.751,228.242,1798.56,229.127,1796.4,229.984ZM1420.847,226.4c-2.149-.757-4.369-1.546-6.6-2.343l.337-.942c2.229.8,4.448,1.585,6.6,2.342Zm388.511-1.725-.39-.921c2.143-.907,4.321-1.841,6.473-2.779l.4.917C1813.685,222.826,1811.5,223.762,1809.358,224.67Zm-401.7-2.989c-2.13-.771-4.342-1.577-6.578-2.4l.344-.939c2.234.818,4.446,1.623,6.574,2.394Zm414.541-2.6-.409-.913c2.118-.949,4.271-1.926,6.4-2.9l.418.909C1826.477,217.15,1824.321,218.128,1822.2,219.078Zm-427.693-2.21c-2.1-.777-4.31-1.6-6.561-2.433l.349-.937c2.25.837,4.457,1.656,6.558,2.432Zm440.428-3.647-.427-.9c2.09-.986,4.213-2,6.311-3.016l.435.9C1839.154,211.217,1837.028,212.233,1834.935,213.221Zm-453.548-1.235c-2.08-.779-4.224-1.583-6.556-2.46l.352-.936c2.331.877,4.475,1.681,6.554,2.46Zm466.18-4.875-.444-.9c2.06-1.02,4.154-2.069,6.222-3.117l.452.892C1851.726,205.039,1849.63,206.089,1847.567,207.111Zm-479.285-.052-6.553-2.474.353-.935,6.552,2.473ZM559.805,204c-2.091,0-4.2-.008-6.286-.022l.007-1c2.314.016,4.662.024,6.978.022v1Zm7.722-.033-.009-1c2.315-.02,4.664-.049,6.981-.087l.016,1C572.2,203.917,569.846,203.946,567.528,203.966ZM546.5,203.9c-2.324-.035-4.68-.079-7-.132l.023-1c2.319.053,4.672.1,6.993.132Zm35.017-.162-.024-1c2.324-.056,4.681-.122,7.006-.2l.032,1C586.206,203.616,583.846,203.682,581.52,203.738Zm-49.01-.156c-2.328-.071-4.688-.153-7.014-.243l.039-1c2.323.09,4.681.171,7.006.242Zm63.005-.29-.04-1c2.324-.092,4.682-.194,7.008-.3l.047,1C600.2,203.1,597.841,203.2,595.515,203.292Zm-76.995-.25c-2.329-.108-4.69-.227-7.016-.354l.054-1c2.324.126,4.682.245,7.009.353Zm90.992-.412-.055-1c2.316-.127,4.665-.265,6.982-.41l.063,1C614.182,202.365,611.83,202.5,609.512,202.63Zm-104.992-.349c-2.32-.145-4.672-.3-6.99-.464l.07-1c2.315.163,4.665.319,6.982.463Zm850.665-.169-6.549-2.472.353-.936,6.55,2.472Zm-731.676-.359-.07-1c2.306-.162,4.646-.335,6.954-.515l.078,1C628.161,201.418,625.819,201.591,623.51,201.754ZM490.54,201.3c-2.312-.181-4.655-.374-6.964-.573l.086-1c2.307.2,4.647.392,6.956.573Zm1369.532-.523-.46-.888c2.041-1.057,4.115-2.142,6.164-3.226l.468.884C1864.191,198.63,1862.115,199.717,1860.072,200.775Zm-1222.607-.109-.085-1c2.31-.2,4.654-.407,6.966-.622l.093,1C642.123,200.259,639.777,200.468,637.464,200.666Zm-160.883-.574c-2.307-.218-4.645-.448-6.95-.684l.1-.995c2.3.236,4.638.466,6.942.683Zm174.817-.724-.1-.995c2.317-.233,4.667-.479,6.984-.73l.108.994C656.07,198.889,653.718,199.135,651.4,199.369Zm-188.751-.7c-2.307-.255-4.645-.523-6.95-.8l.118-.993c2.3.273,4.637.541,6.942.8Zm202.679-.8-.115-.993c2.3-.267,4.643-.546,6.949-.831l.122.992C669.975,197.314,667.634,197.594,665.327,197.861Zm676.757-.688c-2.321-.873-4.463-1.677-6.55-2.458l.35-.936c2.087.781,4.23,1.585,6.551,2.458Zm-893.342-.157c-2.306-.292-4.644-.6-6.947-.909l.134-.991c2.3.31,4.635.616,6.939.908Zm230.505-.872-.13-.991c2.292-.3,4.618-.613,6.911-.93l.137.99C683.87,195.53,681.542,195.844,679.248,196.144Zm-244.381-1c-2.3-.33-4.64-.673-6.941-1.021l.15-.989c2.3.348,4.632.691,6.934,1.02Zm1437.556-.9-.475-.88c2.042-1.1,4.117-2.233,6.168-3.362l.482.876C1876.546,192.007,1874.468,193.139,1872.423,194.243Zm-1179.31-.016-.144-.99c2.295-.335,4.623-.683,6.919-1.034l.151.988C697.741,193.543,695.41,193.891,693.113,194.226Zm-272.088-1.175c-2.3-.367-4.635-.749-6.933-1.134l.165-.986c2.3.385,4.626.766,6.925,1.133Zm907.948-.786c-2.244-.835-4.45-1.654-6.558-2.433l.347-.938c2.109.779,4.316,1.6,6.56,2.433Zm-622.028-.158-.159-.987c2.3-.369,4.628-.752,6.926-1.138l.166.986C711.578,191.354,709.245,191.738,706.945,192.107Zm-299.736-1.373c-2.3-.4-4.621-.823-6.912-1.245l.181-.983c2.289.422,4.612.84,6.9,1.243Zm313.556-.949-.173-.985c2.283-.4,4.6-.815,6.882-1.233l.18.984C725.368,188.969,723.05,189.384,720.765,189.785ZM393.426,188.2c-2.285-.44-4.6-.9-6.883-1.354l.2-.98c2.279.458,4.592.913,6.875,1.352Zm1491.258-.7-.489-.872c2.026-1.136,4.085-2.3,6.12-3.464l.5.868C1888.773,185.192,1886.712,186.358,1884.684,187.5Zm-568.837-.081c-2.229-.817-4.442-1.624-6.576-2.4l.341-.94c2.136.775,4.349,1.582,6.579,2.4Zm-581.277-.153-.187-.983c2.269-.431,4.57-.877,6.839-1.325l.194.981C739.143,186.384,736.84,186.83,734.569,187.262Zm-354.881-1.826c-2.276-.476-4.581-.968-6.854-1.462l.213-.977c2.27.494,4.573.985,6.846,1.461Zm368.595-.882-.2-.98c2.28-.467,4.593-.949,6.874-1.433l.207.978C752.88,183.6,750.565,184.086,748.282,184.554Zm554.408-1.91c-2.224-.8-4.444-1.589-6.6-2.352l.334-.943c2.155.763,4.376,1.555,6.6,2.353ZM366,182.457c-2.266-.512-4.561-1.04-6.823-1.571l.228-.974c2.26.53,4.553,1.058,6.816,1.569Zm395.984-.808-.214-.977c2.267-.5,4.567-1.01,6.835-1.524l.221.975C766.552,180.638,764.25,181.151,761.98,181.649Zm1134.881-1.108-.5-.865c1.994-1.159,4.02-2.347,6.022-3.53l.509.861C1900.886,178.192,1898.858,179.381,1896.862,180.541ZM352.357,179.259c-2.256-.548-4.541-1.113-6.793-1.679l.244-.97c2.249.565,4.532,1.13,6.785,1.677Zm423.308-.711-.228-.974c2.25-.526,4.532-1.068,6.782-1.61l.235.972C780.2,177.479,777.916,178.021,775.664,178.548Zm513.833-.576c-2.222-.776-4.447-1.547-6.614-2.292l.325-.946c2.168.745,4.4,1.517,6.619,2.293ZM338.77,175.843c-2.246-.584-4.521-1.185-6.763-1.787l.259-.966c2.239.6,4.512,1.2,6.755,1.785Zm450.5-.575-.241-.97c2.255-.56,4.541-1.136,6.8-1.712l.248.969C793.811,174.132,791.523,174.709,789.266,175.269Zm486.995-1.846c-2.223-.751-4.455-1.5-6.633-2.221l.315-.949c2.18.723,4.414,1.471,6.638,2.223Zm632.7-.034-.515-.857c1.964-1.181,3.961-2.39,5.933-3.6l.521.853C1912.923,171,1910.925,172.207,1908.958,173.389ZM325.24,172.211c-2.236-.62-4.5-1.257-6.732-1.894l.275-.962c2.229.637,4.491,1.273,6.724,1.892Zm477.585-.406-.254-.967c2.247-.59,4.526-1.2,6.773-1.8l.26.965C807.356,170.607,805.075,171.214,802.826,171.8Zm460.148-2.789c-2.226-.724-4.464-1.443-6.654-2.14l.3-.953c2.192.7,4.432,1.418,6.66,2.142Zm-951.2-.653c-2.225-.655-4.48-1.328-6.7-2l.29-.957c2.218.672,4.47,1.345,6.693,2Zm504.6-.211-.267-.964c2.227-.617,4.486-1.25,6.715-1.883l.273.962C820.861,166.9,818.6,167.534,816.37,168.151Zm1104.494-2.034-.527-.85c1.665-1.033,3.356-2.088,5.027-3.137l.532.847C1924.224,164.027,1922.531,165.084,1920.865,166.117Zm-671.224-1.342c-2.232-.694-4.481-1.384-6.683-2.051l.29-.957c2.2.668,4.455,1.359,6.69,2.053Zm-419.806-.448-.28-.96c1.463-.426,2.947-.861,4.41-1.294q1.18-.349,2.357-.694l.281.96q-1.176.344-2.354.693C832.784,163.466,831.3,163.9,829.834,164.328ZM298.365,164.3c-2.215-.691-4.459-1.4-6.669-2.108l.305-.952c2.208.707,4.449,1.416,6.662,2.106Zm937.888-3.582c-2.241-.661-4.5-1.319-6.719-1.955l.276-.961c2.219.636,4.482,1.295,6.726,1.957Zm-392.9-.328-.274-.962c2.231-.635,4.49-1.267,6.713-1.881l.266.964C847.839,159.125,845.583,159.758,843.354,160.391Zm-558.328-.366c-2.2-.726-4.438-1.471-6.638-2.215l.32-.947c2.2.743,4.428,1.487,6.63,2.212Zm937.779-3.162c-2.251-.626-4.524-1.249-6.755-1.85l.26-.965c2.234.6,4.509,1.225,6.763,1.852Zm-365.978-.19-.258-.966c2.254-.6,4.535-1.2,6.782-1.784l.25.968C861.358,155.472,859.079,156.071,856.828,156.673Zm-585.07-1.134c-2.195-.762-4.417-1.543-6.606-2.322l.335-.942c2.186.778,4.406,1.558,6.6,2.319Zm937.539-2.314c-2.26-.588-4.544-1.172-6.787-1.734l.243-.97c2.246.563,4.532,1.148,6.8,1.737Zm-338.959-.048-.242-.97c2.275-.569,4.579-1.135,6.847-1.681l.234.972C874.911,152.044,872.61,152.609,870.338,153.178Zm-611.775-2.335c-2.184-.8-4.4-1.614-6.574-2.428l.35-.937c2.176.814,4.385,1.63,6.567,2.426Zm625.4-.951-.226-.974c2.27-.527,4.568-1.05,6.83-1.555l.218.976C888.529,148.843,886.233,149.365,883.966,149.892Zm311.76-.07c-2.267-.547-4.559-1.089-6.812-1.61l.226-.974c2.256.522,4.551,1.065,6.821,1.613Zm-298.089-2.978-.209-.978c2.263-.484,4.555-.963,6.811-1.425l.2.98C902.186,145.881,899.9,146.36,897.637,146.843Zm284.458-.177c-2.274-.5-4.574-1-6.836-1.48l.207-.978c2.266.479,4.569.977,6.846,1.482Zm-936.648-.727c-2.174-.832-4.375-1.685-6.542-2.535l.365-.931c2.165.849,4.364,1.7,6.535,2.532Zm665.9-1.9-.192-.981c2.28-.445,4.589-.884,6.862-1.306l.182.983C915.926,143.157,913.621,143.6,911.344,144.04Zm257.061-.267c-2.28-.458-4.588-.91-6.859-1.343l.187-.982c2.274.434,4.585.886,6.869,1.345ZM925.087,141.49l-.173-.985c2.3-.4,4.622-.8,6.911-1.183l.164.987C929.7,140.689,927.38,141.087,925.087,141.49Zm229.572-.336c-2.286-.411-4.6-.815-6.879-1.2l.167-.986c2.283.386,4.6.791,6.89,1.2Zm-922.246-.325c-2.163-.868-4.354-1.757-6.51-2.642l.38-.925c2.154.884,4.342,1.772,6.5,2.639Zm706.455-1.63-.155-.988c2.311-.362,4.651-.716,6.956-1.053l.145.99C943.513,138.484,941.176,138.838,938.868,139.2Zm201.994-.379c-2.291-.363-4.611-.718-6.9-1.055l.146-.99c2.29.338,4.614.693,6.908,1.056Zm-188.155-1.648-.135-.991c2.317-.316,4.664-.625,6.974-.916l.125.992C957.364,136.549,955.021,136.857,952.707,137.172Zm174.316-.392c-2.3-.313-4.625-.618-6.918-.905l.124-.992c2.3.288,4.629.593,6.929.907Zm-907.57-1.27c-2.149-.9-4.324-1.825-6.465-2.744l.394-.919c2.139.918,4.312,1.84,6.458,2.74Zm747.149-.093-.115-.993c2.315-.269,4.659-.529,6.968-.773l.105.995C971.254,134.89,968.913,135.15,966.6,135.418Zm146.545-.376c-2.3-.263-4.638-.517-6.939-.754l.1-.995c2.3.238,4.644.492,6.95.755Zm-132.625-1.095-.095-1c2.313-.22,4.656-.431,6.964-.627l.084,1C985.171,133.516,982.831,133.727,980.521,133.947Zm118.713-.338c-2.308-.212-4.649-.414-6.956-.6l.08-1c2.311.186,4.655.388,6.967.6Zm-104.77-.843-.074-1c2.313-.172,4.655-.333,6.963-.479l.063,1C999.112,132.433,996.773,132.594,994.464,132.765Zm90.829-.28c-2.312-.16-4.656-.31-6.969-.444l.058-1c2.316.135,4.664.284,6.98.445Zm-76.868-.605-.053-1c2.313-.122,4.656-.233,6.965-.33l.042,1C1013.074,131.647,1010.734,131.758,1008.425,131.879Zm62.9-.205c-2.314-.108-4.661-.205-6.976-.288l.036-1c2.319.083,4.67.18,6.988.288Zm-48.929-.38-.031-1c2.317-.072,4.665-.132,6.979-.178l.02,1C1027.058,131.163,1024.713,131.223,1022.4,131.294Zm34.949-.118c-2.314-.056-4.662-.1-6.979-.131l.013-1c2.32.031,4.672.075,6.99.132Zm-20.965-.161-.009-1c2.32-.021,4.671-.029,6.987-.024l0,1C1041.047,130.986,1038.7,130.994,1036.383,131.015Zm-829.814-1.032c-2.129-.933-4.283-1.888-6.4-2.838l.409-.913c2.119.949,4.271,1.9,6.4,2.835Zm-12.792-5.729c-2.106-.964-4.239-1.949-6.337-2.929l.423-.906c2.1.979,4.226,1.963,6.33,2.926Zm-12.694-5.929c-2.094-1-4.214-2.019-6.3-3.034l.438-.9c2.083,1.013,4.2,2.033,6.292,3.03ZM168.495,112.2c-2.085-1.035-4.194-2.092-6.27-3.143l.452-.892c2.073,1.05,4.18,2.106,6.263,3.139Zm-12.483-6.32c-2.072-1.07-4.169-2.163-6.231-3.249l.466-.885c2.06,1.085,4.154,2.176,6.224,3.245ZM143.6,99.344c-2.04-1.1-4.1-2.214-6.134-3.324l.48-.877c2.027,1.109,4.089,2.226,6.127,3.32Zm-12.29-6.724c-2.031-1.133-4.085-2.289-6.1-3.436l.494-.87c2.017,1.146,4.068,2.3,6.1,3.433Zm-12.158-6.909c-2.019-1.169-4.059-2.361-6.064-3.545l.508-.861c2,1.182,4.041,2.373,6.057,3.54Zm-12.09-7.134c-1.991-1.2-4-2.418-5.979-3.628l.522-.853c1.974,1.209,3.983,2.428,5.972,3.624Zm-11.919-7.3c-1.981-1.236-3.982-2.5-5.947-3.745l.536-.844c1.962,1.248,3.96,2.506,5.94,3.741Zm-11.85-7.534c-1.954-1.266-3.926-2.555-5.861-3.833l.551-.835c1.933,1.276,3.9,2.564,5.854,3.828ZM71.607,56.032c-1.93-1.3-3.875-2.62-5.783-3.927l.565-.825c1.9,1.306,3.848,2.626,5.776,3.922ZM60.073,48.124c-1.915-1.338-3.842-2.7-5.73-4.044l.58-.814c1.885,1.344,3.81,2.7,5.722,4.039ZM48.656,39.985c-1.888-1.373-3.787-2.767-5.642-4.144l.6-.8c1.853,1.375,3.749,2.767,5.635,4.139ZM37.413,31.641c-1.873-1.42-3.75-2.857-5.58-4.274l.612-.791c1.827,1.415,3.7,2.851,5.571,4.268ZM26.3,23.036c-1.84-1.458-3.674-2.928-5.451-4.371l.63-.776c1.774,1.44,3.605,2.908,5.442,4.363ZM15.426,14.2C13.6,12.679,11.8,11.16,10.087,9.688l.651-.759c1.711,1.469,3.5,2.985,5.328,4.505ZM4.792,5.063C1.425,2.065-.33.377-.347.36L.347-.36c.017.017,1.76,1.693,5.11,4.676Z" transform="translate(0 790.72)" fill="#fff" opacity="0.4"/><path d="M602.946,408.021c-1.361,0-2.724,0-4.076-.011l.005-1c2.32.013,4.672.014,6.988.005l0,1Q604.414,408.021,602.946,408.021Zm9.928-.066-.013-1c2.323-.031,4.677-.073,7-.126l.023,1C617.557,407.882,615.2,407.924,612.875,407.955Zm-21.021-.016c-2.317-.034-4.668-.08-6.989-.135l.024-1c2.318.056,4.666.1,6.98.135Zm35.019-.3-.032-1c2.324-.075,4.68-.162,7-.259l.042,1C631.56,407.475,629.2,407.562,626.873,407.637Zm-49.029-.033c-2.313-.077-4.661-.165-6.979-.263l.042-1c2.315.1,4.66.186,6.97.263Zm63.016-.55-.051-1c2.325-.119,4.682-.251,7.006-.392l.061,1C645.549,406.8,643.188,406.935,640.86,407.054Zm-77.016-.042c-2.309-.119-4.654-.249-6.968-.389l.06-1c2.311.139,4.653.27,6.959.389Zm91.006-.807-.07-1c2.318-.163,4.668-.339,6.986-.524l.08,1C659.526,405.865,657.172,406.042,654.851,406.2Zm-104.991-.036c-2.306-.16-4.646-.332-6.957-.513l.078-1c2.308.18,4.646.353,6.949.512Zm118.965-1.079-.089-1c2.308-.206,4.648-.427,6.957-.655l.1,1C673.479,404.663,671.135,404.883,668.824,405.09Zm-132.931-.013c-2.3-.2-4.639-.414-6.947-.635l.1-1c2.3.221,4.639.434,6.938.634Zm-13.942-1.334c-2.3-.24-4.633-.494-6.937-.754l.112-.994c2.3.26,4.633.513,6.929.753Zm160.818-.032-.108-.994c2.3-.249,4.633-.513,6.934-.785l.117.993C687.408,403.2,685.072,403.461,682.769,403.711Zm-174.733-1.539c-2.3-.279-4.627-.572-6.928-.871l.129-.992c2.3.3,4.627.591,6.92.87Zm188.643-.1-.126-.992c2.3-.293,4.631-.6,6.933-.916l.136.991C701.317,401.469,698.981,401.778,696.679,402.071Zm-202.528-1.7q-1.149-.159-2.3-.321c-1.55-.219-3.119-.446-4.663-.675l.147-.989c1.542.229,3.108.455,4.656.674q1.15.162,2.3.321Zm216.4-.194-.145-.989c2.3-.336,4.628-.687,6.929-1.045l.154.988C715.182,399.486,712.848,399.838,710.548,400.174Zm-230.279-1.866c-2.3-.367-4.628-.751-6.917-1.141l.168-.986c2.285.39,4.609.773,6.906,1.139Zm244.124-.285-.162-.987c2.286-.376,4.608-.769,6.9-1.168l.171.985C729.007,397.252,726.682,397.646,724.393,398.023Zm-257.934-2.071c-2.293-.417-4.611-.852-6.892-1.293l.19-.982c2.277.44,4.592.875,6.881,1.291Zm271.744-.328-.18-.984c2.272-.415,4.581-.847,6.862-1.285l.188.982C742.79,394.775,740.478,395.208,738.2,395.623Zm-285.5-2.333c-2.283-.468-4.592-.956-6.862-1.448l.212-.977c2.267.492,4.572.978,6.851,1.446Zm299.253-.3-.2-.981c2.268-.454,4.575-.926,6.855-1.4l.2.979C756.538,392.06,754.229,392.533,751.958,392.988ZM439.014,390.32c-2.272-.52-4.569-1.06-6.828-1.605l.234-.972c2.255.544,4.549,1.083,6.817,1.6Zm326.644-.194-.212-.977c2.262-.492,4.564-1,6.843-1.516l.22.975C770.227,389.123,767.922,389.634,765.658,390.126Zm13.678-3.085-.228-.974c2.243-.524,4.529-1.067,6.795-1.614l.235.972C783.87,385.972,781.581,386.516,779.336,387.041Zm-353.944-.007c-2.258-.573-4.541-1.166-6.786-1.763l.257-.966c2.241.6,4.52,1.189,6.774,1.76Zm367.557-3.279-.242-.97c2.238-.557,4.521-1.134,6.787-1.715l.248.969C797.474,382.619,795.188,383.2,792.949,383.754Zm-381.1-.325c-2.243-.625-4.51-1.272-6.74-1.923l.28-.96c2.226.649,4.49,1.3,6.728,1.92Zm394.662-3.15-.255-.967c2.225-.586,4.5-1.192,6.763-1.8l.261.965C811.016,379.087,808.739,379.694,806.512,380.28ZM398.4,379.5c-2.226-.679-4.477-1.38-6.69-2.084l.3-.953c2.209.7,4.456,1.4,6.678,2.08Zm421.644-2.875-.266-.964c2.211-.611,4.477-1.243,6.736-1.88l.271.962C824.523,375.385,822.255,376.018,820.042,376.629Zm-435-1.373c-2.208-.732-4.44-1.488-6.635-2.245l.326-.945c2.191.756,4.42,1.511,6.624,2.241Zm448.462-2.424-.276-.961c2.2-.633,4.465-1.29,6.732-1.953l.281.96C837.976,371.541,835.709,372.2,833.508,372.832ZM371.8,370.684c-2.189-.786-4.4-1.6-6.577-2.408l.35-.937c2.172.81,4.38,1.619,6.565,2.4ZM846.962,368.9l-.285-.959c2.175-.647,4.429-1.321,6.7-2.005l.288.957C851.394,367.574,849.139,368.249,846.962,368.9Zm-488.29-3.11c-2.168-.84-4.36-1.7-6.514-2.57l.373-.928c2.151.864,4.339,1.727,6.5,2.565Zm501.686-.925-.292-.956c2.148-.655,4.4-1.345,6.7-2.053l.294.956C864.762,363.514,862.507,364.205,860.359,364.86Zm13.395-4.122-.3-.955c2.092-.649,4.277-1.328,6.68-2.078l.3.955C878.032,359.41,875.846,360.09,873.753,360.739Zm-528.083-.176c-2.146-.894-4.316-1.813-6.449-2.733l.4-.918c2.129.918,4.3,1.836,6.438,2.728Zm541.438-3.987-.3-.954,4.943-1.547,1.742-.545.3.954-1.742.545Zm-554.3-1.561c-2.123-.947-4.27-1.921-6.379-2.894l.419-.908c2.106.972,4.249,1.944,6.368,2.889Zm567.676-2.622-.3-.955c2.473-.772,4.659-1.454,6.684-2.083l.3.955C905.139,350.94,902.953,351.621,900.48,352.393Zm-580.4-3.248c-2.1-1-4.22-2.028-6.3-3.055l.442-.9c2.081,1.025,4.2,2.051,6.293,3.049Zm593.765-.9-.295-.956c2.361-.728,4.548-1.4,6.687-2.052l.292.956C918.392,346.842,916.206,347.513,913.846,348.241Zm13.381-4.08-.288-.958c2.3-.693,4.564-1.366,6.717-2l.283.959C931.788,342.8,929.529,343.469,927.227,344.161Zm-619.717-1.2c-2.072-1.053-4.167-2.134-6.225-3.213l.464-.886c2.055,1.077,4.146,2.156,6.214,3.207ZM940.658,340.2l-.277-.961c2.294-.662,4.56-1.307,6.737-1.918l.27.963C945.214,338.894,942.95,339.538,940.658,340.2ZM295.1,336.451c-2.044-1.1-4.111-2.238-6.142-3.369l.486-.874c2.027,1.129,4.09,2.26,6.131,3.363Zm659.031-.029-.262-.965c2.293-.622,4.57-1.229,6.767-1.8l.252.968C958.694,335.195,956.421,335.8,954.13,336.422Zm13.531-3.527-.242-.97c2.3-.573,4.589-1.128,6.805-1.65l.229.973C972.242,331.769,969.957,332.323,967.662,332.894Zm139.932-.508c-.752-.268-1.516-.535-2.271-.793l.323-.946c.759.259,1.527.528,2.283.8Zm-126.323-2.695-.215-.977c2.312-.51,4.619-1,6.858-1.457l.2.98C985.88,328.694,983.578,329.183,981.271,329.692Zm-698.414-.058c-2.015-1.156-4.052-2.341-6.054-3.522l.508-.861c2,1.18,4.031,2.362,6.043,3.516Zm815.821-.169c-2.22-.663-4.483-1.291-6.724-1.866l.248-.969c2.254.578,4.529,1.21,6.762,1.877Zm-103.7-2.565-.182-.983c2.323-.431,4.646-.84,6.9-1.214l.163.987C999.611,326.063,997.294,326.471,994.977,326.9Zm90.184-.9c-2.259-.486-4.564-.934-6.85-1.333l.172-.985c2.3.4,4.617.852,6.889,1.34Zm-76.391-1.378-.142-.99c2.335-.336,4.674-.645,6.951-.918l.119.993C1013.429,323.979,1011.1,324.287,1008.77,324.621Zm62.643-1.022c-2.284-.309-4.616-.58-6.933-.805l.1-1c2.329.227,4.674.5,6.97.81Zm-48.768-.639-.094-1c2.345-.222,4.7-.412,6.99-.566l.067,1C1027.324,322.55,1024.981,322.739,1022.645,322.96Zm-751.855-.448c-1.985-1.206-3.991-2.441-5.963-3.673l.53-.848c1.968,1.229,3.971,2.463,5.953,3.666Zm786.731-.267c-2.295-.14-4.641-.242-6.975-.3l.026-1c2.345.062,4.7.164,7.009.3Zm-20.938-.215-.038-1c2.349-.089,4.709-.142,7.013-.157l.007,1C1041.271,321.888,1038.922,321.941,1036.583,322.029Zm-777.676-6.94c-1.954-1.255-3.929-2.54-5.87-3.821l.551-.835c1.938,1.278,3.909,2.562,5.86,3.814Zm-11.695-7.716c-1.923-1.3-3.866-2.637-5.775-3.966l.571-.821c1.906,1.326,3.846,2.658,5.765,3.959Zm-11.5-8c-1.89-1.35-3.8-2.732-5.678-4.107l.591-.807c1.874,1.373,3.781,2.753,5.668,4.1Zm-11.3-8.281c-1.857-1.4-3.734-2.824-5.579-4.245l.61-.792c1.841,1.419,3.715,2.844,5.569,4.238Zm-11.1-8.551c-1.824-1.44-3.667-2.913-5.478-4.379l.629-.777c1.808,1.463,3.648,2.934,5.469,4.371Zm-10.892-8.812c-1.789-1.483-3.6-3-5.374-4.507l.647-.762c1.774,1.505,3.579,3.019,5.365,4.5Zm-10.683-9.065c-1.754-1.523-3.526-3.081-5.267-4.629l.664-.747c1.739,1.546,3.508,3.1,5.259,4.621Zm-10.471-9.309c-1.718-1.563-3.454-3.159-5.16-4.746l.681-.732c1.7,1.584,3.436,3.179,5.151,4.739Zm-10.258-9.543c-1.682-1.6-3.382-3.235-5.052-4.859l.7-.717c1.667,1.622,3.364,3.254,5.044,4.852Zm-10.044-9.768c-1.646-1.636-3.309-3.307-4.943-4.967l.713-.7c1.632,1.657,3.292,3.326,4.936,4.96Zm-9.83-9.984c-1.61-1.671-3.237-3.377-4.835-5.071l.727-.686c1.6,1.691,3.22,3.395,4.828,5.063Zm-9.615-10.19c-1.574-1.7-3.165-3.443-4.728-5.17l.741-.671c1.561,1.724,3.149,3.461,4.721,5.162Zm-9.4-10.387c-1.539-1.735-3.094-3.506-4.621-5.264l.755-.656c1.525,1.755,3.078,3.524,4.615,5.257Zm-9.189-10.575c-1.5-1.766-3.023-3.567-4.516-5.355l.768-.641c1.491,1.785,3.008,3.585,4.509,5.348Zm-8.979-10.753c-1.469-1.795-2.953-3.625-4.411-5.442l.78-.626c1.456,1.814,2.938,3.642,4.405,5.434Zm-8.77-10.924c-1.435-1.822-2.884-3.681-4.309-5.525l.791-.611c1.422,1.841,2.87,3.7,4.3,5.517Zm-8.563-11.086c-1.4-1.849-2.817-3.734-4.208-5.6l.8-.6c1.389,1.868,2.8,3.751,4.2,5.6Zm-8.36-11.24c-1.368-1.874-2.751-3.786-4.109-5.681l.813-.582c1.356,1.893,2.737,3.8,4.1,5.674Zm-8.159-11.386c-1.336-1.9-2.686-3.835-4.011-5.754l.823-.568c1.324,1.917,2.672,3.851,4.007,5.747Zm-7.962-11.524c-1.3-1.923-2.622-3.882-3.916-5.825l.832-.555c1.293,1.94,2.609,3.9,3.912,5.818Zm-7.768-11.656c-1.273-1.945-2.559-3.927-3.822-5.891l.841-.541c1.262,1.962,2.547,3.942,3.818,5.885Zm-7.577-11.781c-1.241-1.963-2.494-3.964-3.725-5.947l.849-.528c1.23,1.981,2.482,3.979,3.721,5.94ZM49.4,92.657c-1.209-1.981-2.43-4-3.63-6l.858-.515c1.2,2,2.418,4.014,3.626,5.992ZM42.189,80.644c-1.178-2-2.367-4.031-3.536-6.046l.865-.5c1.168,2.013,2.356,4.045,3.532,6.04ZM35.16,68.523c-1.147-2.012-2.306-4.061-3.444-6.09l.872-.489c1.137,2.028,2.295,4.075,3.44,6.084ZM28.305,56.3c-1.117-2.025-2.245-4.088-3.353-6.131l.879-.477c1.107,2.041,2.234,4.1,3.35,6.125ZM21.625,43.985c-1.088-2.039-2.187-4.116-3.267-6.173l.885-.465c1.079,2.055,2.177,4.129,3.264,6.167ZM15.119,31.591c-1.063-2.057-2.136-4.152-3.19-6.227l.891-.453c1.053,2.073,2.126,4.166,3.187,6.221ZM8.776,19.111c-1.038-2.075-2.086-4.188-3.116-6.28l.9-.442c1.029,2.09,2.076,4.2,3.113,6.274ZM2.592,6.548C1.578,4.456.554,2.325-.451.215l.9-.43c1,2.108,2.028,4.237,3.041,6.328Z" transform="translate(818.238 0)" fill="#fff" opacity="0.4"/><path d="M744.194,471.74l0-1c2.314-.007,4.662-.024,6.979-.051l.012,1C748.861,471.716,746.51,471.733,744.194,471.74Zm-7.024-.01c-2.321-.014-4.673-.038-6.99-.071l.015-1c2.314.034,4.663.058,6.982.071Zm21.014-.153-.02-1c2.325-.047,4.685-.105,7.015-.172l.029,1C762.875,471.472,760.512,471.53,758.184,471.577Zm-35.013-.052c-2.327-.055-4.685-.12-7.008-.2l.032-1c2.32.075,4.675.141,7,.2Zm49.012-.352-.037-1c2.32-.087,4.675-.185,7-.292l.046,1C776.864,470.988,774.506,471.086,772.183,471.173Zm-62.994-.1c-2.332-.1-4.695-.2-7.022-.321l.05-1c2.325.117,4.684.224,7.013.32Zm77-.544-.054-1c2.31-.126,4.655-.263,6.969-.409l.063,1C790.85,470.266,788.5,470.4,786.19,470.53Zm-91.01-.159c-2.32-.137-4.671-.287-6.988-.445l.068-1c2.313.158,4.661.308,6.979.445Zm105-.72-.071-1,1.988-.144c1.642-.267,3.3-.54,4.943-.81l.163.987c-1.646.271-3.317.545-4.967.813l-.043.005Zm-118.98-.235c-2.311-.179-4.653-.371-6.959-.57l.086-1c2.3.2,4.642.391,6.95.569Zm-13.955-1.208c-2.313-.221-4.656-.456-6.964-.7l.1-.995c2.305.242,4.645.477,6.955.7Zm146.845-.667-.165-.986c2.3-.385,4.627-.779,6.919-1.171l.168.986C818.715,466.762,816.386,467.156,814.086,467.542Zm-160.769-.8c-2.313-.264-4.656-.543-6.965-.828l.123-.993c2.305.285,4.646.563,6.956.827Zm174.567-1.559-.171-.985c2.3-.4,4.626-.806,6.918-1.211l.174.985C832.512,464.381,830.184,464.788,827.885,465.187Zm-188.459-.158c-2.311-.307-4.652-.63-6.959-.958l.141-.99c2.3.328,4.642.65,6.95.957Zm-13.882-1.977c-2.3-.349-4.627-.714-6.921-1.084l.159-.987c2.291.37,4.616.734,6.911,1.082Zm216.122-.3-.177-.984c2.3-.412,4.626-.834,6.919-1.253l.18.984C846.293,461.92,843.965,462.342,841.666,462.754ZM611.708,460.82c-2.286-.391-4.6-.8-6.882-1.21l.178-.984c2.278.411,4.59.818,6.873,1.208Zm243.739-.581-.182-.983c2.292-.425,4.615-.86,6.9-1.291l.185.983C860.063,459.379,857.74,459.813,855.447,460.239Zm-257.526-1.908c-2.28-.434-4.589-.884-6.864-1.339l.2-.981c2.272.454,4.578.9,6.855,1.337Zm271.3-.69-.188-.982c2.283-.437,4.6-.884,6.876-1.328l.191.982C873.817,456.757,871.5,457.2,869.219,457.641Zm-285.032-2.056c-2.275-.477-4.579-.971-6.849-1.469l.214-.977c2.267.5,4.568.991,6.839,1.467Zm298.786-.622-.194-.981c2.271-.449,4.574-.908,6.844-1.364l.2.98C887.548,454.055,885.245,454.514,882.973,454.963ZM570.51,452.585c-2.268-.52-4.566-1.058-6.83-1.6l.232-.973c2.26.54,4.555,1.078,6.82,1.6Zm326.194-.38-.2-.98c2.267-.462,4.567-.935,6.836-1.4l.2.979C901.273,451.27,898.972,451.743,896.7,452.205Zm13.706-2.837-.206-.979c2.271-.477,4.575-.965,6.849-1.449l.208.978C914.986,448.4,912.681,448.891,910.41,449.368Zm-353.517-.038c-2.261-.563-4.551-1.144-6.806-1.728l.251-.968c2.253.583,4.539,1.164,6.8,1.726Zm367.191-2.876-.211-.978c2.273-.491,4.582-.994,6.863-1.493l.214.977C928.668,445.46,926.358,445.963,924.084,446.454Zm-380.762-.638c-2.246-.6-4.52-1.227-6.761-1.852l.269-.963c2.237.624,4.509,1.246,6.752,1.849Zm394.457-2.363-.217-.976c2.257-.5,4.552-1.014,6.82-1.525l.22.975C942.333,442.439,940.037,442.952,937.779,443.453Zm-407.956-1.4c-2.23-.645-4.49-1.309-6.715-1.975l.287-.958c2.222.665,4.478,1.329,6.706,1.972Zm421.624-1.672-.222-.975c2.252-.513,4.544-1.039,6.813-1.562l.225.974C955.993,439.339,953.7,439.865,951.448,440.378ZM516.4,438.034c-2.215-.685-4.458-1.391-6.668-2.1l.3-.953c2.207.705,4.447,1.41,6.659,2.094Zm448.673-.8-.227-.974c2.253-.526,4.551-1.065,6.83-1.6l.23.973C969.626,436.17,967.327,436.709,965.073,437.236Zm13.641-3.22-.232-.973c2.233-.533,4.516-1.08,6.785-1.627l.234.972C983.231,432.935,980.948,433.483,978.714,434.016Zm-475.659-.246c-2.2-.727-4.434-1.474-6.632-2.221l.322-.947c2.195.747,4.423,1.493,6.623,2.218Zm489.268-3.034-.237-.972c2.23-.542,4.519-1.1,6.8-1.663l.238.971C996.844,429.634,994.554,430.193,992.323,430.736Zm-502.53-1.476c-2.191-.768-4.41-1.557-6.6-2.346l.339-.94c2.183.787,4.4,1.576,6.587,2.342ZM1005.92,427.4l-.24-.971c2.2-.546,4.484-1.112,6.775-1.683l.242.97C1010.406,426.287,1008.126,426.853,1005.92,427.4Zm-529.3-2.892c-2.178-.809-4.384-1.639-6.557-2.469l.357-.934c2.17.828,4.373,1.658,6.549,2.466Zm542.886-.493-.243-.97c2.18-.547,4.466-1.122,6.794-1.709l.245.97C1023.971,422.891,1021.685,423.466,1019.5,424.013Zm13.581-3.423-.245-.969,6.777-1.719.246.969Zm-569.551-1.078c-2.165-.849-4.357-1.72-6.516-2.59l.374-.927c2.156.868,4.346,1.739,6.508,2.587Zm583.1-2.362-.246-.969,6.792-1.728.246.969Zm-596.092-2.87c-2.15-.889-4.328-1.8-6.473-2.71l.39-.921c2.142.908,4.317,1.819,6.465,2.707Zm609.675-.583-.246-.969q3.425-.869,6.788-1.72l.245.969Q1063.643,412.828,1060.219,413.7Zm13.575-3.432-.244-.97c2.4-.6,4.62-1.16,6.79-1.7l.242.97C1078.413,409.105,1076.193,409.661,1073.794,410.265Zm-636.147-1.454c-2.134-.927-4.294-1.878-6.422-2.826l.407-.914c2.125.947,4.283,1.9,6.414,2.823Zm649.726-1.932-.24-.971c2.337-.577,4.625-1.138,6.8-1.667l.236.972C1092,405.742,1089.709,406.3,1087.373,406.879Zm13.6-3.308-.233-.972c2.326-.557,4.618-1.1,6.813-1.613l.228.974C1105.584,402.473,1103.293,403.015,1100.969,403.571Zm-676.123-.462c-2.115-.965-4.256-1.953-6.365-2.938l.423-.906c2.106.984,4.245,1.971,6.357,2.934Zm689.747-2.727-.223-.975c2.322-.53,4.621-1.047,6.833-1.537l.216.976C1119.21,399.336,1116.914,399.852,1114.594,400.382Zm185.926-.685c-2.151-.671-4.322-1.324-6.451-1.941l.278-.961c2.136.619,4.313,1.274,6.47,1.947Zm-172.263-2.338-.209-.978c2.323-.5,4.63-.978,6.857-1.433l.2.98C1132.881,396.382,1130.577,396.864,1128.256,397.359Zm-716.106-.179c-2.1-1-4.218-2.027-6.308-3.049l.439-.9c2.087,1.02,4.207,2.045,6.3,3.045Zm875.18-1.3c-2.258-.6-4.537-1.18-6.776-1.721l.235-.972c2.246.543,4.534,1.124,6.8,1.727Zm-145.366-1.322-.19-.982c2.326-.451,4.642-.888,6.884-1.3l.179.984C1146.6,393.674,1144.287,394.11,1141.965,394.561Zm131.777-1.96c-2.278-.493-4.581-.962-6.847-1.394l.187-.982c2.274.434,4.585.9,6.871,1.4Zm-118.017-.548-.167-.986c2.33-.4,4.656-.773,6.914-1.124l.153.988C1160.372,391.281,1158.051,391.659,1155.725,392.053Zm-756.162-1.025c-2.076-1.038-4.179-2.1-6.25-3.158l.455-.891c2.068,1.056,4.168,2.117,6.242,3.154Zm860.454-1.043c-2.292-.377-4.616-.729-6.9-1.044l.137-.991c2.3.317,4.63.67,6.931,1.048Zm-90.478-.074-.138-.99c2.335-.326,4.671-.633,6.944-.912l.122.993C1174.2,389.28,1171.868,389.585,1169.539,389.911Zm13.877-1.7-.1-.995c2.341-.244,4.69-.465,6.98-.658l.084,1C1188.093,387.749,1185.751,387.97,1183.416,388.213Zm62.766-.137c-2.3-.257-4.645-.486-6.955-.682l.084-1c2.319.2,4.668.427,6.981.684Zm-48.836-1.034-.063-1c2.342-.148,4.7-.27,7-.364l.041,1C1202.029,386.773,1199.682,386.895,1197.347,387.042Zm34.911-.146c-2.307-.135-4.655-.241-6.979-.317l.033-1c2.332.076,4.689.183,7,.318Zm-20.951-.419-.017-1c2.34-.04,4.7-.052,7.012-.036l-.007,1C1215.991,386.424,1213.64,386.436,1211.307,386.477Zm-824.221-1.821c-2.057-1.073-4.14-2.172-6.19-3.264l.47-.883c2.048,1.091,4.128,2.188,6.183,3.26Zm-12.364-6.588c-2.037-1.108-4.1-2.241-6.13-3.369l.485-.874c2.028,1.126,4.088,2.258,6.123,3.365Zm-12.248-6.8c-2.017-1.142-4.059-2.31-6.069-3.472l.5-.866c2.008,1.16,4.048,2.327,6.062,3.468Zm-12.13-7.007c-2-1.176-4.018-2.378-6.008-3.573l.515-.857c1.988,1.193,4.007,2.394,6,3.568Zm-12.01-7.21c-1.977-1.21-3.978-2.445-5.949-3.674l.529-.849c1.968,1.227,3.967,2.461,5.942,3.669Zm-11.888-7.41c-1.957-1.242-3.938-2.511-5.888-3.772l.543-.84c1.948,1.259,3.927,2.527,5.882,3.767Zm-11.765-7.6c-1.936-1.274-3.9-2.576-5.827-3.868l.556-.831c1.928,1.291,3.886,2.591,5.82,3.863Zm-11.639-7.794c-1.915-1.305-3.855-2.638-5.764-3.961l.57-.822c1.907,1.322,3.844,2.653,5.757,3.957Zm-11.513-7.981c-1.894-1.336-3.812-2.7-5.7-4.052l.583-.813c1.885,1.352,3.8,2.714,5.693,4.048ZM280.144,318.1c-1.873-1.365-3.768-2.758-5.634-4.141l.6-.8c1.864,1.381,3.758,2.773,5.628,4.136Zm-11.255-8.34c-1.851-1.394-3.724-2.816-5.568-4.227l.608-.794c1.842,1.409,3.713,2.83,5.562,4.222Zm-11.125-8.513c-1.828-1.422-3.679-2.872-5.5-4.31l.62-.785c1.82,1.437,3.668,2.885,5.495,4.306Zm-10.993-8.682c-1.807-1.449-3.635-2.927-5.435-4.393l.632-.775c1.8,1.464,3.625,2.941,5.429,4.388Zm-10.861-8.846c-1.786-1.477-3.593-2.983-5.371-4.476l.643-.766c1.776,1.492,3.582,3,5.366,4.471Zm-10.728-9.007c-1.765-1.5-3.55-3.037-5.308-4.557l.654-.756c1.755,1.518,3.539,3.05,5.3,4.552Zm-10.593-9.163c-1.744-1.531-3.508-3.091-5.244-4.637l.665-.747c1.734,1.545,3.5,3.1,5.239,4.633Zm-10.458-9.315c-1.723-1.557-3.466-3.144-5.181-4.716l.676-.737c1.713,1.571,3.455,3.156,5.176,4.712Zm-10.322-9.463c-1.7-1.583-3.424-3.2-5.119-4.794l.686-.727c1.693,1.6,3.413,3.208,5.114,4.79Zm-10.184-9.606c-1.682-1.609-3.383-3.248-5.057-4.872l.7-.718c1.672,1.622,3.372,3.259,5.052,4.867Zm-10.057-9.757c-1.658-1.631-3.334-3.292-4.984-4.937l.706-.708c1.648,1.644,3.323,3.3,4.979,4.932Zm-9.923-9.9c-1.632-1.65-3.282-3.33-4.9-4.994l.716-.7c1.621,1.662,3.27,3.341,4.9,4.99Zm-9.784-10.031c-1.6-1.668-3.228-3.366-4.824-5.048l.725-.688c1.594,1.68,3.216,3.376,4.819,5.043Zm-9.643-10.159c-1.585-1.693-3.189-3.417-4.765-5.123l.734-.679c1.575,1.7,3.176,3.426,4.76,5.118Zm-9.5-10.283c-1.566-1.718-3.15-3.467-4.706-5.2l.743-.669c1.555,1.729,3.137,3.477,4.7,5.193Zm-9.359-10.405c-1.546-1.742-3.108-3.514-4.644-5.268l.752-.659c1.534,1.752,3.1,3.523,4.639,5.263Zm-9.239-10.551c-1.515-1.753-3.046-3.537-4.551-5.3l.761-.649c1.5,1.763,3.033,3.545,4.546,5.3Zm-9.09-10.662c-1.494-1.776-3-3.583-4.487-5.37l.769-.639c1.482,1.785,2.99,3.59,4.483,5.365Zm-8.935-10.764c-1.476-1.8-2.968-3.635-4.432-5.447l.778-.628c1.463,1.811,2.953,3.642,4.428,5.442ZM89.28,133.748c-1.444-1.811-2.9-3.652-4.334-5.472l.786-.618c1.43,1.818,2.887,3.657,4.33,5.467Zm-8.66-11.009c-1.426-1.838-2.866-3.706-4.279-5.551l.794-.608c1.412,1.844,2.85,3.71,4.275,5.546Zm-8.51-11.116c-1.4-1.853-2.811-3.736-4.2-5.6l.8-.6c1.384,1.858,2.794,3.739,4.192,5.59Zm-8.372-11.242C62.36,98.5,60.97,96.6,59.608,94.718l.81-.586c1.361,1.88,2.75,3.783,4.126,5.658ZM55.522,89.035c-1.35-1.891-2.71-3.81-4.042-5.7l.818-.576c1.331,1.892,2.69,3.809,4.038,5.7ZM47.478,77.6c-1.33-1.918-2.669-3.863-3.979-5.781l.826-.564c1.309,1.916,2.646,3.859,3.975,5.775ZM39.564,66.018c-1.3-1.936-2.611-3.9-3.891-5.829l.834-.552c1.278,1.93,2.586,3.889,3.887,5.823ZM31.827,54.334c-1.274-1.955-2.553-3.933-3.8-5.88l.842-.539c1.246,1.944,2.523,3.92,3.8,5.873Zm-7.55-11.781c-1.247-1.979-2.494-3.977-3.707-5.937l.85-.526c1.212,1.958,2.457,3.954,3.7,5.931ZM16.9,30.618c-1.22-2.01-2.432-4.028-3.6-6l.86-.511c1.171,1.969,2.382,3.986,3.6,5.993ZM9.739,18.575c-1.194-2.055-2.364-4.094-3.477-6.061l.87-.493c1.111,1.963,2.279,4,3.471,6.051ZM2.835,6.367C.672,2.418-.435.248-.446.227L.445-.227c.011.022,1.112,2.179,3.267,6.114Z" transform="translate(624.236 0)" fill="#fff" opacity="0.4"/></g></svg>