<svg id="visual" viewBox="0 0 1500 1100" width="1500" height="1100" xmlns="http://www.w3.org/2000/svg" xmlns:xlink="http://www.w3.org/1999/xlink" version="1.1"><rect x="0" y="0" width="1500" height="1100" fill="#432650"></rect><path d="M0 1008L25 998.8C50 989.7 100 971.3 150 971C200 970.7 250 988.3 300 1010.7C350 1033 400 1060 450 1074C500 1088 550 1089 600 1083.2C650 1077.3 700 1064.7 750 1046.3C800 1028 850 1004 900 1009C950 1014 1000 1048 1050 1040.8C1100 1033.7 1150 985.3 1200 980.7C1250 976 1300 1015 1350 1039.7C1400 1064.3 1450 1074.7 1475 1079.8L1500 1085L1500 1101L1475 1101C1450 1101 1400 1101 1350 1101C1300 1101 1250 1101 1200 1101C1150 1101 1100 1101 1050 1101C1000 1101 950 1101 900 1101C850 1101 800 1101 750 1101C700 1101 650 1101 600 1101C550 1101 500 1101 450 1101C400 1101 350 1101 300 1101C250 1101 200 1101 150 1101C100 1101 50 1101 25 1101L0 1101Z" fill="#fff" stroke-linecap="round" stroke-linejoin="miter"></path></svg>