<svg xmlns="http://www.w3.org/2000/svg" xmlns:xlink="http://www.w3.org/1999/xlink" width="1244.483" height="383" viewBox="0 0 1244.483 383">
  <defs>
    <clipPath id="clip-path">
      <rect id="Rectangle_243" data-name="Rectangle 243" width="380" height="383" transform="translate(0 0.381)" fill="#fff" stroke="#707070" stroke-width="1"/>
    </clipPath>
    <clipPath id="clip-path-2">
      <path id="Path_2164" data-name="Path 2164" d="M2020.6,795.165a106.662,106.662,0,0,1,26.467,5.417h0a107.029,107.029,0,0,1,72.145,101.1,108.364,108.364,0,0,1-2,20.742,107.272,107.272,0,0,1-60.4,76.468,104.483,104.483,0,0,1-12.422,4.76,106.575,106.575,0,0,1-23.8,4.55v11.189a118.119,118.119,0,0,0,0-235.663Z" transform="translate(-2020.598 -783.732)" fill="none"/>
    </clipPath>
    <linearGradient id="linear-gradient" x1="-7.193" y1="2.674" x2="-7.19" y2="2.674" gradientUnits="objectBoundingBox">
      <stop offset="0" stop-color="#fa860b"/>
      <stop offset="1" stop-color="#e0450e"/>
    </linearGradient>
    <clipPath id="clip-path-3">
      <path id="Path_2165" data-name="Path 2165" d="M1737.408,682.312s1.9,19.837-8.988,29.662c-.208.044-.417.083-.625.129a129.464,129.464,0,0,0-40.868,15.915c-15.546,2.538-29.518-14.384-29.518-14.384l-8.858,8.868-8.87,8.863-8.863,8.863s15.378,12.693,14.623,27.35a129.792,129.792,0,0,0-18.013,40.685c-9.207,12.766-31.026,10.681-31.026,10.681V856.55s19.842-1.9,29.667,8.985c.417,2.123.9,4.233,1.418,6.319a129.456,129.456,0,0,0,12.2,30.958q1.172,2.135,2.424,4.22a25.388,25.388,0,0,1-3.572,16.415,51.8,51.8,0,0,1-10.81,13.1l8.863,8.863,8.863,8.865,8.865,8.863s12.692-15.378,27.338-14.621a129.85,129.85,0,0,0,30.089,14.889q3.906,1.337,7.921,2.441c.891.244,1.779.474,2.685.7,12.764,9.2,10.681,31.024,10.681,31.024h12.851V946.455a106.49,106.49,0,0,1-23.874-4.552,104.444,104.444,0,0,1-12.422-4.76,106.446,106.446,0,0,1-60.251-75.75,108.032,108.032,0,0,1-2.148-21.46A106.6,106.6,0,0,1,1745.889,733.4V682.312Z" transform="translate(-1596.402 -682.312)" fill="none"/>
    </clipPath>
    <linearGradient id="linear-gradient-2" x1="-4.177" y1="2.125" x2="-4.174" y2="2.125" xlink:href="#linear-gradient"/>
    <clipPath id="clip-path-4">
      <rect id="Rectangle_238" data-name="Rectangle 238" width="1565" height="938" transform="translate(0.112 0.495)" fill="none"/>
    </clipPath>
    <clipPath id="clip-path-5">
      <path id="Path_2170" data-name="Path 2170" d="M1810.2,654.218q-3.636,12.243-8.1,26.606-5.414,17.33-12.136,37.665c-16.244,48.94-40.548,73.227-58.218,85.016a105.746,105.746,0,0,0,29.142,54.08c.285.286.573.571.864.852.215.212.43.422.649.63.5.488,1,.959,1.509,1.423.332.31.664.615,1,.915s.642.578.976.864c.213.186.42.369.63.547s.388.339.583.505q.991.852,2,1.674c29.861-66.392,44.653-135.835,51.976-188.681,2.777-20.037,4.481-37.685,5.526-51.881,1.631-22.154,1.657-35.9,1.657-37.18-.488,2.2-5.714,25.356-18.05,66.971" transform="translate(-1731.747 -587.255)" fill="none"/>
    </clipPath>
    <linearGradient id="linear-gradient-3" x1="-7.018" y1="2.546" x2="-7.014" y2="2.546" xlink:href="#linear-gradient"/>
    <clipPath id="clip-path-6">
      <path id="Path_2171" data-name="Path 2171" d="M2021.4,680.313v51.093a106.844,106.844,0,0,1,98.692,106.528,106.671,106.671,0,0,1-62.4,97.213,104.547,104.547,0,0,1-12.421,4.76,106.5,106.5,0,0,1-23.874,4.552v51.095h12.852s-2.08-21.821,10.681-31.024c.9-.222,1.787-.456,2.685-.7q4.008-1.091,7.921-2.441a129.869,129.869,0,0,0,30.089-14.89c14.646-.761,27.338,14.621,27.338,14.621l8.868-8.863,8.863-8.868,8.863-8.863a51.818,51.818,0,0,1-10.811-13.1,25.384,25.384,0,0,1-3.571-16.415q1.25-2.082,2.424-4.22a129.523,129.523,0,0,0,12.2-30.958q.786-3.131,1.42-6.319c9.824-10.884,29.667-8.985,29.667-8.985V816.942s-21.822,2.084-31.026-10.681a129.841,129.841,0,0,0-18.017-40.685c-.762-14.645,14.623-27.35,14.623-27.35l-8.863-8.863-8.87-8.863-8.858-8.868s-13.971,16.923-29.517,14.384A129.448,129.448,0,0,0,2039.5,710.1c-.207-.046-.42-.085-.625-.129-10.884-9.825-8.987-29.661-8.987-29.661Z" transform="translate(-2021.399 -680.311)" fill="none"/>
    </clipPath>
    <linearGradient id="linear-gradient-4" x1="-5.289" y1="2.127" x2="-5.286" y2="2.127" xlink:href="#linear-gradient"/>
    <clipPath id="clip-path-7">
      <path id="Path_2176" data-name="Path 2176" d="M2023.154,622.434c1.045,14.2,2.751,31.844,5.526,51.881C2036,727.17,2050.795,796.6,2080.656,863q1.009-.823,2-1.674c.195-.163.39-.332.583-.505s.417-.364.63-.547c.325-.286.645-.571.977-.864s.669-.605,1-.915c.507-.466,1.008-.942,1.509-1.423.219-.208.434-.42.649-.63.288-.281.579-.566.864-.852a105.745,105.745,0,0,0,29.142-54.08c-17.672-11.792-41.983-36.076-58.217-85.016q-6.735-20.311-12.136-37.663-4.476-14.35-8.1-26.606c-12.336-41.615-17.559-64.774-18.05-66.971,0,1.284.027,15.026,1.657,37.18" transform="translate(-2021.504 -585.25)" fill="none"/>
    </clipPath>
    <linearGradient id="linear-gradient-5" x1="-8.193" y1="2.548" x2="-8.188" y2="2.548" xlink:href="#linear-gradient"/>
    <clipPath id="clip-path-8">
      <path id="Path_2167" data-name="Path 2167" d="M1338.128,1549.66,1328,1591.854h32.066l-19.841,82.707,50.03.177,19.884-82.884h31.314l10.128-42.194Z" transform="translate(-1328 -1549.66)"/>
    </clipPath>
    <linearGradient id="linear-gradient-6" x1="-6.49" y1="4.092" x2="-6.485" y2="4.092" xlink:href="#linear-gradient"/>
    <clipPath id="clip-path-9">
      <path id="Path_2169" data-name="Path 2169" d="M1549.6,1643.043a40.114,40.114,0,0,1,4.875-19.5c3.751-6.376,8.814-9.377,16.5-9.377,8.438,0,12.564,3.376,12.564,10.69,0,6.938-2.812,17.064-6.376,22.5-3.75,5.813-9.189,9-15.564,9-8.064,0-12-4.5-12-13.315m-19.878-54.193c-15.189,11.439-25.315,35.441-25.315,59.82,0,17.065,6.376,29.441,18,35.254,7.5,3.751,17.814,5.44,32.817,5.44,27,0,43.693-6.563,56.257-22.314,11.252-13.875,18.189-34.13,18.189-53.069,0-25.316-15.939-37.317-49.694-37.317-23.624,0-39.376,3.748-50.256,12.189" transform="translate(-1504.406 -1576.666)"/>
    </clipPath>
    <linearGradient id="linear-gradient-7" x1="-7.264" y1="4.39" x2="-7.259" y2="4.39" xlink:href="#linear-gradient"/>
    <clipPath id="clip-path-10">
      <path id="Path_2171-2" data-name="Path 2171" d="M1752.547,1644.032c0-5.814,2.438-14.627,5.44-19.315,3.375-5.623,8.438-8.252,15.753-8.252,7.688,0,11.439,3.188,11.439,9.752a46.021,46.021,0,0,1-4.689,18.564,17.341,17.341,0,0,1-16.127,10.126c-7.126,0-11.814-4.312-11.814-10.876m11.063-43.691h-1.125c2.628-7.125,3.187-9.188,6-20.439h-47.065L1683,1737.863h48.9c7.877-33.567,14.646-64.579,15.583-70.768h.75c1.875,15.565,9.188,21,28.316,21,22.691,0,38.817-10.314,48.005-30.941,6.939-15.377,12.564-38.63,12.564-52.131,0-18.938-10.689-27.75-33.378-27.75-21.193,0-30.562,5.249-40.129,23.067" transform="translate(-1683 -1577.276)"/>
    </clipPath>
    <linearGradient id="linear-gradient-8" x1="-6.593" y1="3.085" x2="-6.589" y2="3.085" xlink:href="#linear-gradient"/>
  </defs>
  <g id="Group_1" data-name="Group 1" transform="translate(-626 1058)">
    <g id="Mask_Group_32" data-name="Mask Group 32" transform="translate(626 -1058.38)" clip-path="url(#clip-path)">
      <g id="Group_957" data-name="Group 957" transform="translate(196.959 95.419)" clip-path="url(#clip-path-2)">
        <rect id="Rectangle_236" data-name="Rectangle 236" width="109.864" height="235.663" transform="translate(0.005 0)" fill="url(#linear-gradient)"/>
      </g>
      <g id="Group_959" data-name="Group 959" transform="translate(31.06 55.749)" clip-path="url(#clip-path-3)">
        <rect id="Rectangle_237" data-name="Rectangle 237" width="149.485" height="315.241" transform="translate(-0.004)" fill="url(#linear-gradient-2)"/>
      </g>
      <g id="Group_961" data-name="Group 961" transform="translate(-593.112 -213.114)" clip-path="url(#clip-path-4)">
        <path id="Path_2166" data-name="Path 2166" d="M1929.348,682.314s1.9,19.837-8.987,29.661c-.208.044-.42.083-.625.129q-3.636,12.244-8.1,26.606a105.824,105.824,0,0,1,18.968-4.518c2.778-20.037,4.482-37.685,5.527-51.881Z" transform="translate(-1164.17 -413.45)" fill="#fa860b"/>
        <path id="Path_2167-2" data-name="Path 2167" d="M1745.03,1399.3c.059-.066.125-.144.208-.244l-.208.244" transform="translate(-1062.733 -849.87)" fill="#e0710e"/>
        <path id="Path_2168" data-name="Path 2168" d="M1745.03,1399.3c.059-.066.125-.144.208-.244l-.208.244" transform="translate(-1062.733 -849.87)" fill="#fa860b"/>
        <path id="Path_2169-2" data-name="Path 2169" d="M1807.4,586.979c-.489,2.2-5.714,25.356-18.051,66.971q-1.921,6.464-4.071,13.525a118.139,118.139,0,0,0,22.161,232.018V586.816a.592.592,0,0,1-.039.171M1741.59,858.863c.286.276.576.544.865.815-.288-.271-.579-.539-.865-.815m1.643,1.545.581.532-.581-.532m1.923,1.733.408.356-.408-.356m1.391,1.2q.608.517,1.22,1.02-.615-.505-1.22-1.02m2.153,1.782.5.405-.5-.405m2.075,1.631.1.081-.1-.081m1.8,1.345.488.354-.488-.354m1.848,1.323.417.293-.417-.293m2.143,1.464.415.271-.415-.271m1.8,1.169.542.342-.542-.342m2.2,1.365.178.107-.178-.107m1.919,1.125.573.325-.573-.325m1.953,1.094.488.271-.488-.271m2.3,1.22.488.244-.488-.244m1.926.976.563.273-.563-.273m.42-159.6c-16.244,48.94-40.548,73.227-58.218,85.016a107.078,107.078,0,0,1,70.346-122.681q-5.414,17.33-12.136,37.665" transform="translate(-1033.776 -355.293)" fill="#fa860b"/>
      </g>
      <g id="Group_963" data-name="Group 963" transform="translate(83.986 18.576)" clip-path="url(#clip-path-5)">
        <rect id="Rectangle_239" data-name="Rectangle 239" width="96.508" height="277.751" transform="translate(0.007 -0.007)" fill="url(#linear-gradient-3)"/>
      </g>
      <g id="Group_965" data-name="Group 965" transform="translate(197.275 54.965)" clip-path="url(#clip-path-6)">
        <rect id="Rectangle_240" data-name="Rectangle 240" width="149.485" height="315.241" transform="translate(0.004 0.002)" fill="url(#linear-gradient-4)"/>
      </g>
      <path id="Path_2172" data-name="Path 2172" d="M2025.74,680.312c1.045,14.2,2.751,31.844,5.526,51.881a105.849,105.849,0,0,1,18.968,4.518q-4.476-14.35-8.1-26.606c-.208-.046-.419-.085-.625-.129-10.884-9.825-8.987-29.662-8.987-29.662Z" transform="translate(-1826.764 -625.345)" fill="#fa860b"/>
      <path id="Path_2173" data-name="Path 2173" d="M2254.643,1397.3c-.059-.066-.125-.144-.208-.244l.208.244" transform="translate(-1966.022 -1061.766)" fill="#e0710e"/>
      <path id="Path_2174" data-name="Path 2174" d="M2254.643,1397.3c-.059-.066-.125-.144-.208-.244l.208.244" transform="translate(-1966.022 -1061.766)" fill="#fa860b"/>
      <path id="Path_2175" data-name="Path 2175" d="M2021.4,584.816V897.494a118.139,118.139,0,0,0,22.159-232.016q-2.151-7.056-4.072-13.525c-12.337-41.615-17.56-64.774-18.051-66.971-.027-.115-.039-.171-.039-.171m64.954,272.864c.288-.271.579-.539.864-.815-.285.273-.576.544-.864.815m-1.362,1.262.581-.532-.581.532m-1.752,1.557.407-.356-.407.356m-2.2,1.862q.613-.505,1.221-1.02-.608.515-1.221,1.02m-1.435,1.164.5-.405-.5.405m-1.675,1.308.1-.081-.1.081m-2.18,1.618.488-.354-.488.354m-1.777,1.262.417-.293-.417.293m-2.14,1.445.415-.273-.415.273m-1.929,1.24.542-.342-.542.342m-1.838,1.13.178-.107-.178.107m-2.314,1.345.573-.325-.573.325m-1.877,1.04.488-.271-.488.271m-2.287,1.2.488-.244-.488.244m-2.009,1,.564-.273-.564.273M2047.59,678.558a107.083,107.083,0,0,1,70.341,122.707c-17.667-11.818-41.978-36.1-58.212-85.042q-6.735-20.311-12.136-37.665" transform="translate(-1824.122 -567.199)" fill="#fa860b"/>
      <rect id="Rectangle_241" data-name="Rectangle 241" width="1565" height="938" transform="translate(-593 -212.62)" fill="none"/>
      <g id="Group_969" data-name="Group 969" transform="translate(197.329 17.783)" clip-path="url(#clip-path-7)">
        <rect id="Rectangle_242" data-name="Rectangle 242" width="96.508" height="277.751" transform="translate(-0.01 0.005)" fill="url(#linear-gradient-5)"/>
      </g>
    </g>
    <g id="Group_962" data-name="Group 962" transform="translate(1006.191 -930.129)">
      <g id="Group_957-2" data-name="Group 957" transform="translate(0 3.19)" clip-path="url(#clip-path-8)">
        <path id="Path_2166-2" data-name="Path 2166" d="M1327.567,1548.54l124.265.691-.7,125.756-124.265-.691Z" transform="translate(-1327.561 -1549.225)" fill="url(#linear-gradient-6)"/>
      </g>
      <g id="Group_959-2" data-name="Group 959" transform="translate(107.826 19.697)" clip-path="url(#clip-path-9)">
        <path id="Path_2168-2" data-name="Path 2168" d="M1504.013,1575.52l125.885.7-.63,113.391-125.878-.7Z" transform="translate(-1504.011 -1576.22)" fill="url(#linear-gradient-7)"/>
      </g>
      <g id="Group_961-2" data-name="Group 961" transform="translate(216.99 20.07)" clip-path="url(#clip-path-10)">
        <path id="Path_2170-2" data-name="Path 2170" d="M1682.439,1575.87l155,.862-.9,161.44-155-.862Z" transform="translate(-1682.432 -1576.729)" fill="url(#linear-gradient-8)"/>
      </g>
      <path id="Path_2172-2" data-name="Path 2172" d="M2066.848,1593.01a115.92,115.92,0,0,0-35.442-5.814c-9.938,0-18.19,1.688-22.689,4.5-9.188,6-16.5,22.315-16.5,37.129,0,9.376,3.938,14.064,12,14.064a25.047,25.047,0,0,0,6.751-.937l7.314-30.566h46.505l-12.189,50.819c-14.064,8.063-36.755,13.314-58.319,13.314-19.127,0-34.5-5.251-43.506-14.627-6-6.376-9.189-16.127-9.189-28.316,0-24.378,8.626-50.256,21.944-65.445,12.751-14.814,33.941-22.69,60.757-22.69,19.689,0,37.129,3.188,51.943,9.189Z" transform="translate(-1566.537 -1544.441)" fill="#fff"/>
      <path id="Path_2173-2" data-name="Path 2173" d="M2197.49,1644.572a19.255,19.255,0,0,0-.187,3.188c0,8.439,5.813,11.439,22.315,11.439,10.314,0,22.878-1.687,41.254-5.813l-11.814,27.754c-18.753,5.251-33.379,7.313-50.256,7.313-31.879,0-47.065-11.814-47.065-36.755,0-23.253,9-48.568,21.943-61.507,10.126-10.313,26.065-15.377,48.568-15.377,16.5,0,27.378,1.875,35.441,6,9.563,4.876,14.627,14.252,14.627,26.253,0,11.251-1.875,19.877-7.876,37.5H2197.49Zm36.57-24.187a29.445,29.445,0,0,0,.563-5.063c0-6.939-4.688-10.5-13.692-10.5-10.313,0-17.439,5.813-19.5,15.564Z" transform="translate(-1648.237 -1556.248)" fill="#fff"/>
      <path id="Path_2174-2" data-name="Path 2174" d="M2467.995,1684.519h-47.443c.375-3.75,3-13.127,6-21.378h-.937c-8.814,17.252-18.753,23.065-39,23.065-21.752,0-33.007-10.876-33.007-32.067,0-16.877,6-40.317,13.875-54.381,9.563-17.44,22.877-24.939,43.88-24.939,20.253,0,29.066,7.126,29.066,24v2.628h.937l2.251-12.376c.938-5.623,1.125-6.751,2.251-10.126h47.443Zm-65.445-42.194c0,6.939,4.125,10.876,11.626,10.876,7.126,0,12.564-3.562,15.939-10.5,2.812-5.813,4.876-13.692,4.876-18.753,0-6.376-4.313-9.751-12.376-9.751-11.814,0-20.065,11.442-20.065,28.129" transform="translate(-1726.715 -1556.251)" fill="#fff"/>
      <path id="Path_2175-2" data-name="Path 2175" d="M2662.392,1629.183c-4.688-.375-6.751-.564-9.564-.564-8.252,0-15.377,1.875-20.252,5.44-4.313,3.188-8.064,10.688-10.5,21.19l-7.5,30.94H2567.13l25.315-105.575h42.569l-.75,2.812-1.875,9.188c-.75,3.188-1.5,6.189-2.438,9.189a38.06,38.06,0,0,0-.937,4.5h.562c4.689-11.626,8.252-17.064,13.692-21.19a29.987,29.987,0,0,1,18.377-6,47.532,47.532,0,0,1,12.374,1.5Z" transform="translate(-1809.726 -1557.919)" fill="#fff"/>
      <path id="Path_2176-2" data-name="Path 2176" d="M1805.54,1813.887V1794.37h7.633a8.99,8.99,0,0,1,6.893,2.64,9.933,9.933,0,0,1,2.506,7.157,9.69,9.69,0,0,1-2.562,7.1,9.282,9.282,0,0,1-7,2.614h-7.471Zm3.912-3.753h3.75a4.752,4.752,0,0,0,3.912-1.717,6.662,6.662,0,0,0,1.4-4.331,6.493,6.493,0,0,0-1.4-4.252,4.754,4.754,0,0,0-3.912-1.716h-3.75Z" transform="translate(-1513.649 -1641.604)" fill="#fff"/>
      <path id="Path_2177" data-name="Path 2177" d="M1852.314,1813.887l-4.12-7.1h-2.323v7.1h-3.912V1794.37h7.474a6.569,6.569,0,0,1,4.965,1.8,6.1,6.1,0,0,1,1.716,4.384,5.837,5.837,0,0,1-3.961,5.73l4.727,7.606Zm-6.442-15.9v5.282h3.2c2.033,0,3.037-1.161,3.037-2.667a2.516,2.516,0,0,0-2.693-2.615h-3.539Z" transform="translate(-1527.808 -1641.604)" fill="#fff"/>
      <path id="Path_2178" data-name="Path 2178" d="M1874.29,1813.887V1794.37h13.227v3.643h-9.3v4.2h8.612v3.643h-8.612v4.389h9.3v3.643Z" transform="translate(-1540.376 -1641.604)" fill="#fff"/>
      <path id="Path_2179" data-name="Path 2179" d="M1915.59,1813.887l-1.452-4.225h-6.814l-1.505,4.225h-4.1l7.448-19.517h3.2l7.342,19.517Zm-4.835-14.211-2.323,6.5h4.6Z" transform="translate(-1551.042 -1641.604)" fill="#fff"/>
      <path id="Path_2180" data-name="Path 2180" d="M1938.19,1813.887V1794.37h2.586l7.659,11.063,7.579-11.063h2.64v19.517h-3.906v-11.069l-5.678,8.166h-1.345l-5.678-8.166v11.069Z" transform="translate(-1565.218 -1641.604)" fill="#fff"/>
      <path id="Path_2181" data-name="Path 2181" d="M1996.8,1811.184a9.609,9.609,0,0,1-2.878-7.213,9.734,9.734,0,0,1,2.934-7.29,9.866,9.866,0,0,1,7.157-2.878,10.3,10.3,0,0,1,8.4,4.04l-2.615,2.562a6.969,6.969,0,0,0-5.572-2.827,5.956,5.956,0,0,0-4.437,1.823,6.2,6.2,0,0,0-1.8,4.569,6.052,6.052,0,0,0,6.206,6.234,6.97,6.97,0,0,0,5.678-2.852l2.693,2.457a10.679,10.679,0,0,1-8.609,4.146,10.009,10.009,0,0,1-7.157-2.773" transform="translate(-1586.88 -1641.383)" fill="#fff"/>
      <path id="Path_2182" data-name="Path 2182" d="M2041.83,1813.887l-1.453-4.225h-6.813l-1.505,4.225h-4.1l7.448-19.517h3.2l7.341,19.517ZM2037,1799.676l-2.323,6.5h4.6Z" transform="translate(-1600.119 -1641.604)" fill="#fff"/>
      <path id="Path_2183" data-name="Path 2183" d="M2074.785,1813.887l-4.12-7.1h-2.323v7.1h-3.912V1794.37h7.475a6.566,6.566,0,0,1,4.965,1.8,6.1,6.1,0,0,1,1.717,4.385,5.838,5.838,0,0,1-3.961,5.73l4.727,7.606h-4.569Zm-6.443-15.9v5.282h3.2c2.033,0,3.036-1.161,3.036-2.667a2.515,2.515,0,0,0-2.693-2.615h-3.539Z" transform="translate(-1614.296 -1641.604)" fill="#fff"/>
      <path id="Path_2184" data-name="Path 2184" d="M2123.28,1797.485h2.826v6.813c0,1.083.527,1.663,1.188,1.663.607,0,1.162-.4,1.664-1.214a5.687,5.687,0,0,0,.74-3.037,7.719,7.719,0,0,0-2.615-5.916,8.744,8.744,0,0,0-6.284-2.351,8.872,8.872,0,0,0-6.5,2.8,9.439,9.439,0,0,0,.133,13.284,9.282,9.282,0,0,0,6.784,2.774,11.912,11.912,0,0,0,7.051-2.431l1.294,2.166a11.628,11.628,0,0,1-3.671,2.007,14.056,14.056,0,0,1-4.806.845,12.023,12.023,0,1,1,8.028-20.863,10.025,10.025,0,0,1,3.327,7.553,7.766,7.766,0,0,1-1.637,5.044,4.96,4.96,0,0,1-3.988,1.98,3.05,3.05,0,0,1-3.118-1.956,4.6,4.6,0,0,1-3.988,1.956,5.114,5.114,0,0,1-3.83-1.638,5.707,5.707,0,0,1-1.531-4.095,5.816,5.816,0,0,1,1.531-4.12,5.079,5.079,0,0,1,3.884-1.664,4.34,4.34,0,0,1,3.512,1.531v-1.135Zm-.9,7.58a3.031,3.031,0,0,0,.872-2.192,3.153,3.153,0,0,0-.872-2.245,2.747,2.747,0,0,0-2.086-.924,3.024,3.024,0,0,0-3.01,3.143,2.973,2.973,0,0,0,2.984,3.09,2.884,2.884,0,0,0,2.112-.871" transform="translate(-1631.6 -1640.233)" fill="#fff"/>
      <path id="Path_2185" data-name="Path 2185" d="M2178.8,1813.887l-1.452-4.225h-6.812l-1.506,4.225h-4.095l7.448-19.517h3.2l7.342,19.517Zm-4.834-14.211-2.323,6.5h4.6Z" transform="translate(-1653.369 -1641.604)" fill="#fff"/>
      <path id="Path_2186" data-name="Path 2186" d="M2201.4,1813.887V1794.37h13.019v3.7h-9.114v4.382h8.007v3.674h-8.007v7.763Z" transform="translate(-1667.545 -1641.604)" fill="#fff"/>
      <path id="Path_2187" data-name="Path 2187" d="M2230.611,1813.887V1794.37h13.019v3.7h-9.114v4.382h8v3.674h-8v7.763Z" transform="translate(-1678.901 -1641.604)" fill="#fff"/>
      <path id="Path_2188" data-name="Path 2188" d="M2260.381,1811.065a9.7,9.7,0,0,1-2.9-7.13,10.123,10.123,0,1,1,10.143,10.01,9.856,9.856,0,0,1-7.238-2.88m11.6-11.65a6.122,6.122,0,0,0-8.663,0,6.516,6.516,0,0,0-.026,8.9,6.1,6.1,0,0,0,10.458-4.438,6.015,6.015,0,0,0-1.772-4.462" transform="translate(-1689.344 -1641.343)" fill="#fff"/>
      <path id="Path_2189" data-name="Path 2189" d="M2309.484,1813.887l-4.12-7.1h-2.323v7.1h-3.912V1794.37h7.475a6.569,6.569,0,0,1,4.966,1.8,6.1,6.1,0,0,1,1.717,4.384,5.838,5.838,0,0,1-3.962,5.73l4.728,7.606h-4.569Zm-6.442-15.9v5.282h3.2c2.033,0,3.037-1.161,3.037-2.667a2.517,2.517,0,0,0-2.693-2.615h-3.54Z" transform="translate(-1705.538 -1641.604)" fill="#fff"/>
      <path id="Path_2190" data-name="Path 2190" d="M2331.45,1813.887V1794.37h7.633a8.992,8.992,0,0,1,6.894,2.64,9.936,9.936,0,0,1,2.506,7.157,9.693,9.693,0,0,1-2.561,7.1,9.282,9.282,0,0,1-7,2.614h-7.472Zm3.912-3.753h3.75a4.754,4.754,0,0,0,3.912-1.717,6.665,6.665,0,0,0,1.4-4.331,6.488,6.488,0,0,0-1.4-4.252,4.757,4.757,0,0,0-3.912-1.716h-3.75Z" transform="translate(-1718.102 -1641.604)" fill="#fff"/>
      <path id="Path_2191" data-name="Path 2191" d="M2377.291,1813.887l-1.452-4.225h-6.813l-1.505,4.225h-4.1l7.448-19.517h3.2l7.34,19.517Zm-4.834-14.211-2.323,6.5h4.6Z" transform="translate(-1730.534 -1641.604)" fill="#fff"/>
      <path id="Path_2192" data-name="Path 2192" d="M2414.968,1808.2a5.337,5.337,0,0,1-1.691,4.04,6.173,6.173,0,0,1-4.49,1.638h-8.9v-19.517h8.5a5.478,5.478,0,0,1,4.068,1.451,4.689,4.689,0,0,1,1.478,3.407,4.235,4.235,0,0,1-2.668,3.961,4.881,4.881,0,0,1,3.7,5.019m-11.223-10.434v4.252h3.83a2.238,2.238,0,0,0,2.483-2.192,2.105,2.105,0,0,0-2.323-2.06Zm4.279,12.677a2.593,2.593,0,1,0,0-5.149h-4.279v5.15h4.279Z" transform="translate(-1744.708 -1641.597)" fill="#fff"/>
      <path id="Path_2193" data-name="Path 2193" d="M2432.94,1813.887V1794.37h3.937v15.764h9.9v3.753Z" transform="translate(-1757.558 -1641.604)" fill="#fff"/>
      <path id="Path_2194" data-name="Path 2194" d="M2462.89,1813.887V1794.37h13.228v3.643h-9.3v4.2h8.613v3.643h-8.613v4.389h9.3v3.643Z" transform="translate(-1769.201 -1641.604)" fill="#fff"/>
      <path id="Path_2195" data-name="Path 2195" d="M2514.595,1794.37a6.649,6.649,0,0,1,5.15,1.875,6.452,6.452,0,0,1,1.744,4.569,6.235,6.235,0,0,1-1.8,4.543,7.328,7.328,0,0,1-5.387,1.8h-3.012v6.735h-3.908V1794.37Zm-.153,9.242a2.778,2.778,0,0,0,3.063-2.853,2.683,2.683,0,0,0-2.853-2.773H2511.3v5.623Z" transform="translate(-1786.5 -1641.604)" fill="#fff"/>
      <path id="Path_2196" data-name="Path 2196" d="M2548.5,1813.887l-4.121-7.1h-2.323v7.1h-3.911V1794.37h7.474a6.566,6.566,0,0,1,4.965,1.8,6.1,6.1,0,0,1,1.717,4.384,5.837,5.837,0,0,1-3.961,5.73l4.727,7.606H2548.5Zm-6.448-15.9v5.282h3.2c2.034,0,3.037-1.161,3.037-2.667a2.516,2.516,0,0,0-2.693-2.615h-3.539Z" transform="translate(-1798.459 -1641.604)" fill="#fff"/>
      <path id="Rectangle_262" data-name="Rectangle 262" d="M0,0H3.935V19.517H0Z" transform="translate(759.445 152.766)" fill="#fff"/>
      <path id="Path_2197" data-name="Path 2197" d="M2588.2,1811.184a9.61,9.61,0,0,1-2.879-7.213,9.731,9.731,0,0,1,2.934-7.29,9.863,9.863,0,0,1,7.156-2.878,10.3,10.3,0,0,1,8.4,4.04l-2.615,2.562a6.97,6.97,0,0,0-5.572-2.827,5.955,5.955,0,0,0-4.437,1.823,6.2,6.2,0,0,0-1.8,4.569,6.051,6.051,0,0,0,6.207,6.234,6.967,6.967,0,0,0,5.678-2.852l2.693,2.457a10.68,10.68,0,0,1-8.609,4.146,10.011,10.011,0,0,1-7.158-2.773" transform="translate(-1816.797 -1641.383)" fill="#fff"/>
      <path id="Path_2199" data-name="Path 2199" d="M1370.686,1787.017h-8.1l-5.141,21.442h-12.952l5.141-21.442h-8.294l2.616-10.917h29.352Z" transform="translate(-1333.186 -1634.501)" fill="#fff"/>
      <path id="Path_2200" data-name="Path 2200" d="M1408.757,1796.672c-1.213-.1-1.746-.146-2.474-.146a8.934,8.934,0,0,0-5.239,1.406c-1.116.824-2.086,2.765-2.716,5.482l-1.941,8h-12.273l6.549-27.311h11.012l-.194.728-.485,2.377c-.194.824-.388,1.6-.63,2.377a9.826,9.826,0,0,0-.245,1.164h.146c1.213-3.008,2.134-4.415,3.541-5.482a7.762,7.762,0,0,1,4.754-1.552,12.29,12.29,0,0,1,3.2.388Z" transform="translate(-1349.815 -1637.463)" fill="#fff"/>
      <path id="Path_2201" data-name="Path 2201" d="M1454.419,1810.991h-12.272a31.586,31.586,0,0,1,1.553-5.53h-.245c-2.28,4.462-4.851,5.965-10.09,5.965-5.627,0-8.537-2.812-8.537-8.295a33.024,33.024,0,0,1,3.59-14.068c2.474-4.512,5.917-6.452,11.351-6.452,5.24,0,7.518,1.844,7.518,6.209v.679h.245l.582-3.2a13.5,13.5,0,0,1,.582-2.619h12.273Zm-16.931-10.917c0,1.8,1.067,2.812,3.008,2.812a4.377,4.377,0,0,0,4.124-2.717,12.856,12.856,0,0,0,1.261-4.851c0-1.65-1.115-2.523-3.2-2.523-3.051,0-5.191,2.961-5.191,7.274" transform="translate(-1365.643 -1637.033)" fill="#fff"/>
      <path id="Path_2202" data-name="Path 2202" d="M1499.906,1807.473a35.1,35.1,0,0,1,1.65-5.434h-.342a14.047,14.047,0,0,1-2.571,3.687c-1.6,1.455-4.27,2.28-7.471,2.28-5.627,0-8.489-2.765-8.489-8.295a34.19,34.19,0,0,1,2.911-12.855c2.522-5.336,6.063-7.617,11.885-7.617,5.335,0,7.567,1.844,7.567,6.21v.63h.34a77.769,77.769,0,0,1,1.6-8.053l1.067-4.463h12.321l-8.149,33.908h-12.32Zm-3.447-15.574a11.4,11.4,0,0,0-1.116,4.753c0,1.8,1.067,2.812,3.008,2.812a4.482,4.482,0,0,0,4.172-2.863,11.856,11.856,0,0,0,1.214-4.656c0-1.7-1.116-2.571-3.2-2.571a4.362,4.362,0,0,0-4.075,2.522" transform="translate(-1388.135 -1633.516)" fill="#fff"/>
      <path id="Path_2203" data-name="Path 2203" d="M1550.274,1806.919H1538l6.549-27.311a63.635,63.635,0,0,0,6.646.339,39.368,39.368,0,0,0,5.627-.339Zm-.293-28.814a11.248,11.248,0,0,1-3.881-.436c-.436-.194-.63-.631-.63-1.455a5.967,5.967,0,0,1,.921-3.2c.437-.485.776-.631,2.086-.776.63-.049,1.406-.1,1.747-.1h3.638c3.395,0,4.026.244,4.026,1.7a5.257,5.257,0,0,1-1.161,3.542c-.582.582-1.5.727-3.832.727h-2.913Z" transform="translate(-1409.64 -1632.961)" fill="#fff"/>
      <path id="Path_2204" data-name="Path 2204" d="M1582.207,1785.883a3.114,3.114,0,0,1-.291,1.067,7.975,7.975,0,0,0-.436,2.086c2.328-4.172,5.48-5.868,11.01-5.868,5.191,0,8.2,2.086,8.2,5.724a27.5,27.5,0,0,1-.728,5.531l-4.074,16.784h-12.273l3.251-13.583a15.017,15.017,0,0,0,.582-3.153c0-1.115-.825-1.8-2.328-1.8-2.329,0-3.784,1.552-4.609,4.951l-3.25,13.583h-12.273l6.549-27.311h11.157Z" transform="translate(-1420.131 -1637.249)" fill="#fff"/>
      <path id="Path_2205" data-name="Path 2205" d="M1654.677,1804.936c-1.018,4.316-1.794,5.965-3.832,8-3.153,3.25-7.81,4.707-14.892,4.707a62.185,62.185,0,0,1-12.709-1.406l.728-6.549a46.648,46.648,0,0,0,9.847,1.261,11.993,11.993,0,0,0,6.452-1.455c1.455-.922,1.455-.922,2.571-4.609.145-.388.291-.776.436-1.261h-.244c-2.571,3.687-5.239,5.045-9.9,5.045-5.53,0-8.392-2.425-8.392-7.227,0-5,1.94-11.061,4.609-14.262,2.376-2.862,5.53-4.172,9.992-4.172,3.1,0,5.287.727,6.357,2.183.63.825.873,1.7,1.116,3.638h.244a19.332,19.332,0,0,1,.533-3.057c.34-1.455.34-1.455.437-1.941h11.735Zm-17.659-5.868c0,1.9.971,2.812,2.959,2.812a5.022,5.022,0,0,0,3.687-1.895,10.541,10.541,0,0,0,1.7-5.336c0-1.6-1.161-2.571-3.008-2.571-3.154,0-5.336,2.812-5.336,6.985" transform="translate(-1442.78 -1637.188)" fill="#fff"/>
    </g>
  </g>
</svg>
